<svg xmlns="http://www.w3.org/2000/svg" xmlns:xlink="http://www.w3.org/1999/xlink" width="0" height="0" style="position:absolute">
	
		<symbol id="alert-attention" viewBox="0 0 286.054 286.054">
			<path d="M143.027 0C64.04 0 0 64.04 0 143.027c0 78.996 64.04 143.027 143.027 143.027 78.996 0 143.027-64.022 143.027-143.027C286.054 64.04 222.022 0 143.027 0zm0 259.236c-64.183 0-116.209-52.026-116.209-116.209S78.844 26.818 143.027 26.818s116.209 52.026 116.209 116.209-52.026 116.209-116.209 116.209zm.009-196.51c-10.244 0-17.995 5.346-17.995 13.981v79.201c0 8.644 7.75 13.972 17.995 13.972 9.994 0 17.995-5.551 17.995-13.972V76.707c-.001-8.43-8.001-13.981-17.995-13.981zm0 124.997c-9.842 0-17.852 8.01-17.852 17.86 0 9.833 8.01 17.843 17.852 17.843s17.843-8.01 17.843-17.843c-.001-9.851-8.001-17.86-17.843-17.86z" fill="#ffe03f"></path>
		</symbol>
	
		<symbol id="alert-info" viewBox="0 0 330 330">
			<g fill="#e5e5e5"><path d="M165 0C74.019 0 0 74.02 0 165.001 0 255.982 74.019 330 165 330s165-74.018 165-164.999S255.981 0 165 0zm0 300c-74.44 0-135-60.56-135-134.999S90.56 30 165 30s135 60.562 135 135.001C300 239.44 239.439 300 165 300z"></path><path d="M164.998 70c-11.026 0-19.996 8.976-19.996 20.009 0 11.023 8.97 19.991 19.996 19.991 11.026 0 19.996-8.968 19.996-19.991 0-11.033-8.97-20.009-19.996-20.009zM165 140c-8.284 0-15 6.716-15 15v90c0 8.284 6.716 15 15 15 8.284 0 15-6.716 15-15v-90c0-8.284-6.716-15-15-15z"></path></g>
		</symbol>
	
		<symbol id="alert-invalid" viewBox="0 0 286.054 286.054">
			<path d="M168.352 142.924l25.28-25.28c3.495-3.504 3.495-9.154 0-12.64l-12.64-12.649c-3.495-3.486-9.145-3.495-12.64 0l-25.289 25.289-25.271-25.271c-3.504-3.504-9.163-3.504-12.658-.018l-12.64 12.649c-3.495 3.486-3.486 9.154.018 12.649l25.271 25.271-25.227 25.226a8.93 8.93 0 0 0 0 12.64l12.64 12.649c3.495 3.486 9.145 3.495 12.64 0l25.226-25.226 25.405 25.414c3.504 3.504 9.163 3.504 12.658.009l12.64-12.64c3.495-3.495 3.486-9.154-.009-12.658l-25.404-25.414zM143.027.004C64.031.004 0 64.036 0 143.022c0 78.996 64.031 143.027 143.027 143.027s143.027-64.031 143.027-143.027C286.054 64.045 222.022.004 143.027.004zm0 259.228c-64.183 0-116.209-52.026-116.209-116.209s52.026-116.21 116.209-116.21 116.209 52.026 116.209 116.209-52.026 116.21-116.209 116.21z" fill="#e2574c"></path>
		</symbol>
	
		<symbol id="alert-valid" viewBox="0 0 286.054 286.054">
			<path d="M143.031 0C64.027 0 .004 64.04.004 143.027c0 78.996 64.031 143.027 143.027 143.027 78.987 0 143.018-64.031 143.018-143.027C286.049 64.049 222.018 0 143.031 0zm0 259.236c-64.183 0-116.209-52.026-116.209-116.209S78.857 26.818 143.031 26.818s116.2 52.026 116.2 116.209-52.025 116.209-116.2 116.209zm56.21-177.049c-6.079-3.629-13.847-1.475-17.342 4.827l-47.959 86.147-26.71-32.512c-4.836-5.569-11.263-8.456-17.333-4.827-6.079 3.638-8.591 12.39-4.657 18.004l37.169 45.241c2.78 3.611 5.953 5.775 9.27 6.392l.027.054.34.018c.751.116 11.979 2.19 16.815-6.463l55.048-98.876c3.493-6.313 1.411-14.367-4.668-18.005z" fill="#3db39e"></path>
		</symbol>
	
		<symbol id="arrow" viewBox="0 0 11 6">
			<path d="M1 1l4.5 4L10 1" stroke="#041655"></path>
		</symbol>
	
		<symbol id="arrow-left" viewBox="0 0 49.656 49.656">
			<path d="M35.121 1.414l2.828 2.828-20.585 20.586 20.585 20.586-2.828 2.828-23.414-23.414z"></path><path d="M35.122 49.656l-24.83-24.828L35.121 0l4.242 4.242-20.585 20.586 20.586 20.586-4.242 4.242zM13.121 24.828l22.001 22 1.414-1.414L15.95 24.828 36.535 4.242l-1.414-1.414-22 22z"></path>
		</symbol>
	
		<symbol id="arrow-right" viewBox="0 0 49.656 49.656">
			<path d="M14.535 48.242l-2.828-2.828 20.585-20.586L11.707 4.242l2.828-2.828 23.414 23.414z"></path><path d="M14.535 49.656l-4.242-4.242 20.585-20.586L10.293 4.242 14.535 0l24.829 24.828-24.829 24.828zm-1.414-4.242l1.414 1.414 22-22-22-22-1.414 1.414 20.585 20.586-20.585 20.586z"></path>
		</symbol>
	
		<symbol id="close" viewBox="0 0 60 60">
			<path d="M27.55 30.33L4.89 53A1.61 1.61 0 0 0 6 55.74a1.64 1.64 0 0 0 1.14-.47L30 32.44l22.83 22.83a1.64 1.64 0 0 0 1.14.47A1.61 1.61 0 0 0 55.11 53L32.45 30.33 55.13 7.65a1.61 1.61 0 1 0-2.28-2.28L30 28.22 7.15 5.37a1.61 1.61 0 1 0-2.28 2.28zm0 0" fill="#FFF"></path>
		</symbol>
	
		<symbol id="cnt-mail" viewBox="0 0 20 20">
			<path d="M18.242 2.383H1.758A1.76 1.76 0 0 0 0 4.14v11.718a1.76 1.76 0 0 0 1.758 1.758h16.484A1.76 1.76 0 0 0 20 15.86V4.141a1.76 1.76 0 0 0-1.758-1.758zM18 3.555l-7.963 7.962-8.03-7.962H18zM1.172 15.617V4.377l5.644 5.596-5.644 5.644zm.829.828l5.647-5.647 1.979 1.962c.229.227.598.226.826-.002l1.93-1.93L18 16.446H2zm16.827-.828L13.211 10l5.617-5.617v11.234z" fill="#041655"></path>
		</symbol>
	
		<symbol id="cnt-phone" viewBox="0 0 20 20">
			<g clip-path="url(#a)"><path d="M4.075 13.295a21.218 21.218 0 0 0 7.057 5.528c1.032.49 2.412 1.07 3.95 1.169.095.004.186.008.282.008 1.031 0 1.86-.356 2.536-1.09.004-.004.012-.012.016-.02.24-.29.514-.552.8-.83.195-.186.394-.38.585-.58.882-.92.882-2.088-.009-2.98l-2.49-2.49c-.423-.44-.929-.671-1.46-.671-.53 0-1.04.232-1.475.667l-1.483 1.483a7.933 7.933 0 0 0-.41-.215 5.138 5.138 0 0 1-.456-.249c-1.351-.858-2.578-1.976-3.75-3.415-.593-.75-.991-1.38-1.269-2.022.39-.352.754-.721 1.107-1.082.124-.128.252-.257.38-.385.448-.448.689-.966.689-1.492s-.236-1.044-.688-1.492L6.752 1.902c-.145-.145-.282-.286-.423-.43-.273-.283-.56-.573-.841-.834C5.06.22 4.56 0 4.029 0c-.526 0-1.032.22-1.475.642l-1.55 1.55a3.185 3.185 0 0 0-.95 2.04c-.078.99.104 2.042.577 3.315.725 1.968 1.82 3.796 3.444 5.748zM1.066 4.318c.05-.55.261-1.01.659-1.409l1.542-1.541c.24-.232.505-.353.762-.353.253 0 .51.12.746.36.278.258.539.527.82.813.142.145.287.29.432.44l1.235 1.234c.257.257.39.518.39.775s-.133.518-.39.775l-.386.39c-.385.39-.746.758-1.144 1.11l-.02.021c-.344.344-.29.672-.208.92l.013.033c.319.767.762 1.497 1.455 2.367 1.243 1.533 2.552 2.723 3.994 3.638.179.117.37.208.548.299.165.083.319.161.455.248l.046.025c.137.07.27.104.402.104.332 0 .547-.211.617-.282l1.55-1.55c.24-.24.502-.369.759-.369.315 0 .572.195.733.37l2.5 2.494c.497.497.492 1.036-.013 1.562-.174.187-.357.365-.551.552-.29.281-.593.572-.866.899-.477.514-1.045.754-1.778.754-.07 0-.145-.004-.216-.008-1.36-.087-2.623-.618-3.572-1.07a20.156 20.156 0 0 1-6.718-5.263c-1.546-1.86-2.586-3.593-3.274-5.45C1.161 6.068 1 5.152 1.066 4.319z" fill="#041655"></path></g><defs><clipPath id="a"><path fill="#fff" d="M0 0h20v20H0z"></path></clipPath></defs>
		</symbol>
	
		<symbol id="cnt-pin" viewBox="0 0 20 20">
			<path d="M10 0a7.04 7.04 0 0 0-7.031 7.031c0 1.31.363 2.589 1.05 3.698l5.58 8.994a.586.586 0 0 0 .499.277h.004a.586.586 0 0 0 .498-.285l5.44-9.081a7.023 7.023 0 0 0 .991-3.603A7.04 7.04 0 0 0 10 0zm5.034 10.032l-4.945 8.256-5.075-8.177a5.852 5.852 0 0 1-.881-3.08A5.88 5.88 0 0 1 10 1.164c3.23 0 5.863 2.636 5.863 5.867 0 1.06-.29 2.097-.83 3.001z" fill="#041655"></path><path d="M10 3.516A3.52 3.52 0 0 0 6.484 7.03 3.511 3.511 0 0 0 10 10.547a3.509 3.509 0 0 0 3.516-3.516A3.52 3.52 0 0 0 10 3.516zm0 5.867A2.353 2.353 0 0 1 7.648 7.03 2.36 2.36 0 0 1 10 4.68a2.357 2.357 0 0 1 2.348 2.351A2.349 2.349 0 0 1 10 9.383z" fill="#041655"></path>
		</symbol>
	
		<symbol id="cnt-req" viewBox="0 0 20 20">
			<path d="M16.122 0H3.88a.833.833 0 0 0-.833.833v16.109c0 .46.373.833.833.833h1.296v1.808a.417.417 0 0 0 .733.271l.917-1.066.917 1.066a.417.417 0 0 0 .733-.27v-1.809h7.646c.46 0 .833-.373.833-.833V.833A.833.833 0 0 0 16.122 0zm-8.98 17.863a.417.417 0 0 0-.633 0l-.5.583v-1.584a2.318 2.318 0 0 0 1.634 0v1.584l-.5-.584zm1.197-3.217a1.53 1.53 0 0 1-1.513 1.529h-.017a1.53 1.53 0 1 1 1.53-1.53zm7.762 2.291H8.476v-.604a2.363 2.363 0 1 0-3.3 0v.605H3.88V.832h12.242L16.1 16.938z" fill="#041655"></path><path d="M13.621 3.296H6.38a.417.417 0 0 0 0 .833h7.241a.417.417 0 0 0 0-.833zM13.621 5.692H6.38a.417.417 0 0 0 0 .833h7.241a.417.417 0 0 0 0-.833zM13.621 8.088H6.38a.417.417 0 0 0 0 .833h7.241a.417.417 0 0 0 0-.833zM13.621 10.483H6.38a.417.417 0 0 0 0 .834h7.241a.417.417 0 1 0 0-.834zM13.62 12.88H10.31a.417.417 0 1 0 0 .832h3.309a.417.417 0 0 0 0-.833z" fill="#041655"></path>
		</symbol>
	
		<symbol id="col-mail" viewBox="0 0 13 13">
			<g clip-path="url(#a)" fill="#646464"><path d="M11.838 11.607c.292 0 .545-.096.76-.287L8.915 7.637l-.255.183c-.275.203-.499.362-.67.475-.173.114-.401.23-.686.349a2.09 2.09 0 0 1-.798.177H6.49c-.247 0-.512-.059-.798-.177a4.122 4.122 0 0 1-.685-.349 17.096 17.096 0 0 1-.672-.475 31.593 31.593 0 0 0-.254-.184L.398 11.32c.216.19.469.287.761.287h10.679zM.733 5.317A3.846 3.846 0 0 1 0 4.688v5.603l3.246-3.246A250.8 250.8 0 0 0 .733 5.318zM12.273 5.317c-.988.67-1.828 1.245-2.52 1.728L13 10.29V4.686c-.208.233-.45.443-.726.631z"></path><path d="M11.837 1.393H1.16c-.373 0-.66.126-.86.377-.2.251-.301.566-.301.943 0 .305.133.635.399.99.266.356.549.635.849.838.164.116.66.46 1.487 1.034a477.478 477.478 0 0 1 1.9 1.324l.109.077.2.144c.157.114.288.206.392.276.104.07.23.149.377.236a2.2 2.2 0 0 0 .417.196c.13.043.252.065.363.065h.014c.112 0 .232-.022.363-.065.13-.044.27-.11.417-.196a7.73 7.73 0 0 0 .77-.512 48.103 48.103 0 0 1 .308-.221l.734-.51 2.66-1.848c.354-.246.649-.544.886-.892a1.92 1.92 0 0 0 .355-1.095c0-.32-.115-.593-.345-.82a1.122 1.122 0 0 0-.816-.341z"></path></g><defs><clipPath id="a"><path fill="#fff" d="M0 0h13v13H0z"></path></clipPath></defs>
		</symbol>
	
		<symbol id="col-phone" viewBox="0 0 12 12">
			<g clip-path="url(#a)"><path d="M11.731 9.484L9.878 7.63c-.37-.367-.98-.356-1.363.026l-.933.933-.185-.102c-.59-.327-1.396-.775-2.245-1.624-.852-.852-1.3-1.66-1.628-2.25-.034-.063-.067-.123-.1-.18l.626-.626.309-.308c.382-.383.393-.994.024-1.363L2.53.283c-.368-.369-.98-.357-1.362.025L.645.834.66.848a3.02 3.02 0 0 0-.43.759c-.101.264-.164.517-.192.77C-.207 4.406.72 6.26 3.236 8.775c3.478 3.478 6.28 3.215 6.401 3.202a3.127 3.127 0 0 0 1.529-.622l.011.01.53-.518c.381-.383.392-.994.024-1.363z" fill="#646464"></path></g><defs><clipPath id="a"><path fill="#fff" d="M0 0h12v12H0z"></path></clipPath></defs>
		</symbol>
	
		<symbol id="comment" viewBox="0 0 16 15">
			<path d="M13.8 0H2.2C.987 0 0 1.005 0 2.241v7.235c0 1.233.983 2.237 2.192 2.241V15l4.63-3.283H13.8c1.213 0 2.2-1.005 2.2-2.241V2.24C16 1.006 15.013 0 13.8 0zm1.262 9.476c0 .709-.566 1.286-1.262 1.286H6.528l-3.399 2.41v-2.41H2.2A1.276 1.276 0 0 1 .939 9.476V2.24c0-.709.566-1.286 1.262-1.286h11.6c.696 0 1.262.577 1.262 1.286v7.235z" fill="#000"></path>
		</symbol>
	
		<symbol id="ct-clock" viewBox="0 0 20 20">
			<path d="M19.96 8.562a.42.42 0 0 0-.381-.243h-1.246C17.541 4.022 13.768.755 9.245.755 4.148.755 0 4.903 0 10c0 5.098 4.147 9.245 9.245 9.245a9.28 9.28 0 0 0 8.007-4.62.84.84 0 0 0-1.455-.842 7.594 7.594 0 0 1-6.552 3.781c-4.17 0-7.564-3.393-7.564-7.563s3.393-7.564 7.564-7.564c3.592 0 6.602 2.52 7.369 5.883h-1.236a.421.421 0 0 0-.323.69l2.1 2.52a.42.42 0 0 0 .646 0l2.102-2.52a.42.42 0 0 0 .057-.448z" fill="#0094FF"></path><path d="M9.245 2.857a.84.84 0 0 0-.84.84v5.1a1.469 1.469 0 0 0 1.46 2.532l2.924 1.688a.84.84 0 0 0 .84-1.455l-2.926-1.69a1.464 1.464 0 0 0-.617-1.075v-5.1a.842.842 0 0 0-.841-.84zm0 7.773a.63.63 0 1 1 .001-1.261.63.63 0 0 1-.001 1.261z" fill="#0094FF"></path>
		</symbol>
	
		<symbol id="ct-mail" viewBox="0 0 20 16">
			<path d="M18.242.383H1.758A1.76 1.76 0 0 0 0 2.14v11.718a1.76 1.76 0 0 0 1.758 1.758h16.484A1.76 1.76 0 0 0 20 13.86V2.141A1.76 1.76 0 0 0 18.242.383zM18 1.555l-7.963 7.962-8.03-7.962H18zM1.172 13.617V2.377l5.644 5.596-5.644 5.644zm.829.828l5.647-5.647 1.979 1.962c.229.227.598.226.826-.002l1.93-1.93L18 14.446H2zm16.827-.828L13.211 8l5.617-5.617v11.234z" fill="#0094FF"></path>
		</symbol>
	
		<symbol id="ct-phone" viewBox="0 0 20 20">
			<path d="M4.076 13.295a21.218 21.218 0 0 0 7.057 5.528c1.032.49 2.412 1.07 3.95 1.169.095.004.186.008.281.008 1.032 0 1.861-.356 2.537-1.09.004-.004.012-.012.016-.02.24-.29.514-.552.8-.83.195-.186.394-.38.585-.58.882-.92.882-2.088-.009-2.98l-2.49-2.49c-.423-.44-.929-.671-1.46-.671-.53 0-1.04.232-1.475.667l-1.483 1.483a7.89 7.89 0 0 0-.41-.215 5.138 5.138 0 0 1-.456-.249c-1.351-.858-2.578-1.976-3.75-3.415-.593-.75-.991-1.38-1.269-2.022.39-.352.754-.721 1.107-1.082.124-.128.252-.257.38-.385.448-.448.689-.966.689-1.492s-.236-1.044-.688-1.492L6.753 1.902c-.145-.145-.282-.286-.423-.43-.273-.283-.56-.573-.841-.834C5.062.22 4.56 0 4.03 0c-.526 0-1.032.22-1.475.642l-1.55 1.55a3.185 3.185 0 0 0-.95 2.04c-.078.99.104 2.042.577 3.315.725 1.968 1.82 3.796 3.444 5.748zM1.067 4.318c.05-.55.261-1.01.659-1.409l1.542-1.541c.24-.232.505-.353.762-.353.253 0 .51.12.746.36.278.258.539.527.82.813.142.145.287.29.432.44l1.235 1.234c.257.257.39.518.39.775s-.133.518-.39.775l-.386.39c-.385.39-.746.758-1.144 1.11l-.02.021c-.344.344-.29.672-.208.92l.013.033c.319.767.762 1.497 1.455 2.367 1.243 1.533 2.552 2.723 3.994 3.638.179.117.37.208.548.299.165.083.319.161.455.248l.046.025c.137.07.27.104.402.104.332 0 .547-.211.618-.282l1.55-1.55c.24-.24.5-.369.758-.369.315 0 .572.195.733.37l2.5 2.494c.497.497.492 1.036-.013 1.562-.174.187-.357.365-.551.552-.29.281-.593.572-.866.899-.477.514-1.045.754-1.778.754-.07 0-.145-.004-.216-.008-1.36-.087-2.623-.618-3.572-1.07a20.156 20.156 0 0 1-6.718-5.263c-1.546-1.86-2.586-3.593-3.274-5.45-.427-1.139-.588-2.055-.522-2.888z" fill="#0094FF"></path>
		</symbol>
	
		<symbol id="ct-pin" viewBox="0 0 20 20">
			<path d="M10 0a7.04 7.04 0 0 0-7.031 7.031c0 1.31.363 2.589 1.05 3.698l5.58 8.994a.586.586 0 0 0 .499.277h.004a.586.586 0 0 0 .498-.285l5.44-9.081a7.023 7.023 0 0 0 .991-3.603A7.04 7.04 0 0 0 10 0zm5.034 10.032l-4.945 8.256-5.075-8.177a5.852 5.852 0 0 1-.881-3.08A5.88 5.88 0 0 1 10 1.164c3.23 0 5.863 2.636 5.863 5.867 0 1.06-.29 2.097-.83 3.001z" fill="#0094FF"></path><path d="M10 3.516A3.52 3.52 0 0 0 6.484 7.03 3.511 3.511 0 0 0 10 10.547a3.509 3.509 0 0 0 3.516-3.516A3.52 3.52 0 0 0 10 3.516zm0 5.867A2.353 2.353 0 0 1 7.648 7.03 2.36 2.36 0 0 1 10 4.68a2.357 2.357 0 0 1 2.348 2.351A2.349 2.349 0 0 1 10 9.383z" fill="#0094FF"></path>
		</symbol>
	
		<symbol id="glass" viewBox="0 0 60 60">
			<title>Монтажная область 2 копия 13</title><path d="M53.36 47.55L42.69 36.88l-.18-.15a20.19 20.19 0 1 0-5.78 5.78c.06.05.09.12.15.18l10.67 10.67a4.11 4.11 0 0 0 5.81-5.81zm-27.73-8.72a13.2 13.2 0 1 1 13.2-13.2 13.2 13.2 0 0 1-13.2 13.2zm0 0" fill-rule="evenodd"></path>
		</symbol>
	
		<symbol id="h-pdf" viewBox="0 0 12 15">
			<path d="M7.812 0H1.788C.908 0 .19.717.19 1.596V13.403C.191 14.284.908 15 1.788 15h8.22c.88 0 1.596-.716 1.596-1.597V3.778L7.812 0zm2.196 14.022h-8.22a.62.62 0 0 1-.618-.619V1.597A.62.62 0 0 1 1.788.98L7.447.973v2.091c0 .611.495 1.108 1.107 1.108l2.049-.006.023 9.237a.619.619 0 0 1-.618.62z" fill="#fff"></path>
		</symbol>
	
		<symbol id="i-camera" viewBox="0 0 15 13">
			<path d="M14.414 2.586A1.927 1.927 0 0 0 13 2h-1.75L10.852.938a1.45 1.45 0 0 0-.543-.66A1.392 1.392 0 0 0 9.5 0h-4c-.276 0-.546.092-.809.277a1.451 1.451 0 0 0-.543.66L3.75 2H2c-.552 0-1.023.195-1.414.586C.196 2.976 0 3.448 0 4v7c0 .552.195 1.024.586 1.414.39.39.862.586 1.414.586h11c.552 0 1.023-.195 1.414-.586.39-.39.586-.862.586-1.414V4c0-.552-.195-1.023-.586-1.414zM9.973 9.973A3.37 3.37 0 0 1 7.5 11a3.37 3.37 0 0 1-2.473-1.027A3.37 3.37 0 0 1 4 7.5c0-.963.343-1.788 1.027-2.473A3.37 3.37 0 0 1 7.5 4a3.37 3.37 0 0 1 2.473 1.027A3.37 3.37 0 0 1 11 7.5a3.37 3.37 0 0 1-1.027 2.473z" fill="#041655"></path><path d="M7.5 5.25c-.62 0-1.15.22-1.59.66-.44.44-.66.97-.66 1.59 0 .62.22 1.15.66 1.59.44.44.97.66 1.59.66.62 0 1.15-.22 1.59-.66.44-.44.66-.97.66-1.59 0-.62-.22-1.15-.66-1.59-.44-.44-.97-.66-1.59-.66z" fill="#041655"></path>
		</symbol>
	
		<symbol id="i-clock" viewBox="0 0 10 10">
			<path d="M5.006 0A5.004 5.004 0 0 0 0 5.006a5.012 5.012 0 0 0 5.006 5.007 5.012 5.012 0 0 0 5.007-5.007C10 2.24 7.76 0 5.006 0zm0 8.945a3.946 3.946 0 0 1-3.938-3.939 3.938 3.938 0 1 1 7.877 0 3.955 3.955 0 0 1-3.939 3.939z"></path><path d="M7.606 4.852h-2.24V2.149a.407.407 0 0 0-.41-.412.407.407 0 0 0-.413.412v3.115c0 .231.18.412.412.412h2.664c.232 0 .412-.18.412-.412a.426.426 0 0 0-.425-.412z"></path>
		</symbol>
	
		<symbol id="i-comment" viewBox="0 0 14 12">
			<path d="M0 1a1 1 0 0 1 1-1h12a1 1 0 0 1 1 1v7a1 1 0 0 1-1 1H0V1zM4 9l-4 3V9h4z" fill="#EB5757"></path><path fill="#fff" d="M3 3h8v1H3zM3 5h4v1H3z"></path>
		</symbol>
	
		<symbol id="i-eye" viewBox="0 0 15 9">
			<path d="M7.5 0C4.634 0 2.035 1.578.117 4.142a.6.6 0 0 0 0 .713C2.035 7.422 4.634 9 7.5 9c2.866 0 5.465-1.578 7.383-4.142a.6.6 0 0 0 0-.713C12.965 1.578 10.366 0 7.5 0zm.206 7.669c-1.903.12-3.474-1.458-3.354-3.376.098-1.581 1.371-2.863 2.942-2.962 1.903-.12 3.474 1.458 3.354 3.376-.101 1.578-1.374 2.86-2.942 2.962zM7.61 6.205a1.702 1.702 0 0 1-1.804-1.816 1.712 1.712 0 0 1 1.587-1.597 1.702 1.702 0 0 1 1.804 1.816A1.712 1.712 0 0 1 7.61 6.205z"></path>
		</symbol>
	
		<symbol id="i-label" viewBox="0 0 12 12">
			<path d="M10.708 0H6.154a.352.352 0 0 0-.248.103L.378 5.631a1.293 1.293 0 0 0 0 1.826l4.164 4.165c.244.243.568.377.914.377.346 0 .67-.134.913-.377l5.528-5.528A.352.352 0 0 0 12 5.846V1.292C12 .579 11.42 0 10.708 0zm.589 5.7l-5.425 5.425a.584.584 0 0 1-.416.171.584.584 0 0 1-.416-.171L.875 6.96a.59.59 0 0 1 0-.832L6.3.703h4.408a.59.59 0 0 1 .589.589V5.7z" fill="#041655"></path><path d="M8.902 1.994c-.296 0-.573.115-.782.324a1.097 1.097 0 0 0-.323.78c0 .296.115.573.323.782.21.208.486.323.782.323.295 0 .572-.115.78-.323.21-.209.324-.486.324-.781 0-.295-.115-.573-.323-.781a1.098 1.098 0 0 0-.781-.324zm.283 1.389a.399.399 0 0 1-.567 0 .399.399 0 0 1 0-.568.399.399 0 0 1 .567 0 .399.399 0 0 1 0 .568z" fill="#041655"></path>
		</symbol>
	
		<symbol id="i-materials" viewBox="0 0 12 14">
			<path d="M9.005 2.759h2.523L9.005.24V2.76z" fill="#EB5757"></path><path d="M8.185 3.579V0H.23v14h11.537V3.579H8.185zm.82 4.105v.82h-6.01v-.82h6.01zm-6.01-.821v-.82h6.01v.82h-6.01zm6.01 2.463v.82h-6.01v-.82h6.01zm0-4.925v.82h-6.01V4.4h6.01z" fill="#EB5757"></path>
		</symbol>
	
		<symbol id="i-pin" viewBox="0 0 13 13">
			<path d="M6.5 0a4.338 4.338 0 0 0-4.334 4.333c0 .718.18 1.429.52 2.06l3.576 6.467a.27.27 0 0 0 .474 0l3.578-6.47c.34-.628.519-1.34.519-2.057A4.338 4.338 0 0 0 6.499 0zm0 6.5a2.17 2.17 0 0 1-2.167-2.167 2.17 2.17 0 0 1 2.166-2.166 2.17 2.17 0 0 1 2.167 2.166A2.17 2.17 0 0 1 6.499 6.5z" fill="#041655"></path>
		</symbol>
	
		<symbol id="i-print" viewBox="0 0 12 12">
			<path d="M11.593 5.484a1.333 1.333 0 0 0-.977-.408h-.462V3.23c0-.192-.048-.404-.144-.634a1.678 1.678 0 0 0-.346-.548L8.567.952A1.68 1.68 0 0 0 8.02.605a1.665 1.665 0 0 0-.634-.144H2.539a.668.668 0 0 0-.49.202.668.668 0 0 0-.203.49v3.923h-.461c-.38 0-.706.136-.978.408A1.333 1.333 0 0 0 0 6.461v3c0 .063.023.117.069.163.045.045.1.068.162.068h1.615v1.154c0 .192.067.356.202.49a.668.668 0 0 0 .49.202h6.924a.668.668 0 0 0 .49-.202.668.668 0 0 0 .202-.49V9.692h1.615a.222.222 0 0 0 .162-.068A.222.222 0 0 0 12 9.46v-3c0-.38-.136-.705-.407-.977zM9.23 10.615H2.769V8.77h6.462v1.846zM9.23 6H2.769V1.384h4.616v1.154c0 .192.067.356.202.49a.667.667 0 0 0 .49.202h1.154V6zm1.71.786a.444.444 0 0 1-.325.137.444.444 0 0 1-.325-.137.443.443 0 0 1-.137-.325c0-.125.046-.233.137-.324A.443.443 0 0 1 10.616 6c.125 0 .233.045.324.137.091.091.137.2.137.324a.443.443 0 0 1-.137.325z" fill="#041655" opacity=".5"></path>
		</symbol>
	
		<symbol id="i-user" viewBox="0 0 14 14">
			<mask id="a" maskUnits="userSpaceOnUse" x="2.974" y="-1" width="8" height="9" fill="#000"><path fill="#fff" d="M2.974-1h8v9h-8z"></path><path d="M6.95 7.544h.093c.849-.015 1.536-.314 2.043-.885 1.116-1.258.93-3.415.91-3.62C9.924 1.492 9.193.753 8.59.408A3.223 3.223 0 0 0 7.03 0h-.049c-.321 0-.954.052-1.56.397-.608.345-1.35 1.084-1.423 2.641-.02.206-.206 2.363.91 3.621.505.571 1.192.87 2.041.885zM4.771 3.11c0-.009.003-.018.003-.023C4.871 1.008 6.346.786 6.978.786h.035c.783.017 2.114.336 2.204 2.302 0 .008 0 .017.002.023.003.02.206 1.992-.716 3.03-.365.411-.852.614-1.493.62H6.981c-.638-.006-1.127-.209-1.49-.62-.919-1.033-.722-3.013-.719-3.03z"></path></mask><path d="M6.95 7.544h.093c.849-.015 1.536-.314 2.043-.885 1.116-1.258.93-3.415.91-3.62C9.924 1.492 9.193.753 8.59.408A3.223 3.223 0 0 0 7.03 0h-.049c-.321 0-.954.052-1.56.397-.608.345-1.35 1.084-1.423 2.641-.02.206-.206 2.363.91 3.621.505.571 1.192.87 2.041.885zM4.771 3.11c0-.009.003-.018.003-.023C4.871 1.008 6.346.786 6.978.786h.035c.783.017 2.114.336 2.204 2.302 0 .008 0 .017.002.023.003.02.206 1.992-.716 3.03-.365.411-.852.614-1.493.62H6.981c-.638-.006-1.127-.209-1.49-.62-.919-1.033-.722-3.013-.719-3.03z" fill="#363636"></path><path d="M6.95 7.544l-.002.1h.001v-.1zm.092 0v.1h.002l-.002-.1zm2.044-.885l.075.067-.075-.067zm.91-3.62l-.1.004v.005l.1-.01zM8.59.408l-.05.087.05-.087zM7.03 0l.003-.1H7.03V0zM5.423.397l.049.087-.05-.087zM3.998 3.038l.1.01v-.005l-.1-.005zm.91 3.621l.075-.066-.075.066zm-.136-3.548l.099.016.001-.008v-.008h-.1zm.003-.023l-.1-.005v.005h.1zM7.013.786l.002-.1h-.002v.1zm2.204 2.302h.1v-.005l-.1.005zm.002.023l.1-.014-.003-.016-.007-.015-.09.045zm-.716 3.03l-.074-.067.074.066zm-1.493.62v.1h.001v-.1zm-.029 0v.1-.1zm-1.49-.62l.075-.067-.075.066zM6.95 7.643H6.996v-.2h-.001-.002-.001-.001-.003-.002-.001-.001-.001-.001-.002-.001-.001-.001-.001-.001-.002-.001-.003-.002-.002-.002-.001-.002-.001-.002-.001-.001-.002-.001-.001v.2zm.047 0H7.014v-.2h-.001-.001-.001-.001-.002-.001-.001H7h-.002-.002v.2zm.017 0H7.043v-.2H7.04h-.001-.001-.001-.003-.001-.001-.001-.004-.001-.001-.001-.001-.001-.001-.001-.001-.001-.001-.001-.001-.001v.2zm.03 0c.875-.015 1.59-.324 2.118-.918l-.15-.133c-.486.548-1.146.837-1.97.85l.003.2zm2.118-.918c.578-.651.814-1.529.906-2.26.092-.732.04-1.33.029-1.438l-.2.02c.01.1.062.682-.028 1.394-.09.714-.318 1.544-.857 2.151l.15.133zm.935-3.692C10.022 1.452 9.271.683 8.64.322l-.1.174c.576.329 1.286 1.038 1.357 2.547l.2-.01zM8.64.322A3.323 3.323 0 0 0 7.033-.1l-.004.2c.57.011 1.078.147 1.512.396l.1-.174zM7.03-.1h-.02v.2h.02v-.2zm-.02 0h-.001-.001-.001-.001-.002-.001-.001H7h-.002v.2H7.01v-.2zM7-.1H6.98v.2H7v-.2zm-.018 0c-.33 0-.982.053-1.609.41l.1.174A3.129 3.129 0 0 1 6.981.1v-.2zM5.372.31c-.636.36-1.4 1.13-1.474 2.724l.2.009c.07-1.52.791-2.23 1.373-2.559L5.372.31zM3.9 3.03a6.89 6.89 0 0 0 .029 1.438c.091.73.328 1.608.906 2.259l.15-.133c-.54-.607-.768-1.437-.858-2.151a6.692 6.692 0 0 1-.028-1.394l-.2-.02zm.934 3.697c.526.594 1.24.903 2.115.918l.003-.2c-.825-.014-1.484-.303-1.968-.85l-.15.132zm.04-3.615a.05.05 0 0 1-.001.006v-.001a.303.303 0 0 0 .003-.028h-.2v-.01.002a.207.207 0 0 0-.003.03h.2zm.002-.019c.047-1.013.427-1.557.857-1.852.436-.3.94-.354 1.246-.354v-.2c-.325 0-.875.057-1.359.389-.49.336-.895.942-.944 2.008l.2.01zM6.978.886h.012v-.2h-.012v.2zm.012 0H7.014v-.2h-.001-.001-.001-.001-.001-.001-.001-.001-.001-.001-.001-.004-.001-.001-.001-.003-.002v.2zm.021 0c.381.008.886.09 1.304.4.414.307.758.848.802 1.806l.2-.009c-.047-1.007-.413-1.609-.883-1.957C7.97.78 7.417.695 7.015.686l-.004.2zm2.106 2.202v.021c.001.009.003.027.013.047l.179-.09a.079.079 0 0 1 .008.025v-.003h-.2zm.003.037s.013.122.018.324c.005.201.002.477-.03.785-.063.619-.24 1.345-.68 1.84l.15.133c.482-.543.665-1.321.73-1.953.065-.634.013-1.14.01-1.157l-.198.028zM8.43 6.074c-.344.387-.802.581-1.42.587l.002.2c.664-.006 1.18-.218 1.567-.654l-.15-.133zm-1.419.587h-.001-.002-.001-.001-.001-.001H7 7h-.001-.003v.2H7.01v-.2zm-.014 0h-.001-.005-.001-.001-.001-.002-.001-.002v.2H6.996v-.2zm-.014 0c-.614-.006-1.075-.2-1.416-.587l-.15.132c.385.437.903.649 1.564.655l.002-.2zm-1.416-.587c-.438-.492-.616-1.22-.68-1.84-.065-.618-.015-1.108-.015-1.107l-.197-.033c-.004.019-.054.527.012 1.161.066.633.25 1.412.73 1.952l.15-.133z" fill="#363636" mask="url(#a)"></path><path d="M2.392 8.683l-.03.009c-1.254.43-1.295 1.767-1.312 2.34v.005l3.748-3.45c-.011.009-1.093.763-2.406 1.096zm0 0l-.012-.049m.012.049l-.012-.049m0 0a7.743 7.743 0 0 0 1.68-.665 8.543 8.543 0 0 0 .708-.422h.001a.441.441 0 1 1 .507.722h-.001a1.084 1.084 0 0 0-.013.01c-.14.094-1.26.849-2.647 1.206-.319.114-.497.341-.599.623-.102.285-.126.623-.137.953l.5-2.427zm0 0a.408.408 0 0 0-.033.01c-.647.222-.98.68-1.153 1.151-.17.466-.186.949-.194 1.235v.007c0 .027 0 .047-.003.066V11.117c-.002.078-.003.31.015.572.018.261.056.559.136.76a.422.422 0 0 0 .17.207c.1.067 2.193 1.394 5.686 1.394 3.487 0 5.579-1.325 5.685-1.393h.001a.438.438 0 0 0 .171-.207c.075-.201.111-.498.128-.758L2.38 8.634zm6.373-.403l-.03.04a.441.441 0 1 1 .508-.722l.001.001a1.185 1.185 0 0 0 .05.034l.143.092c.124.076.3.181.518.296.434.23 1.029.5 1.678.665l.003.001.012.004a.402.402 0 0 1 .017.005c.647.22.98.677 1.153 1.149.171.466.186.95.194 1.237v.007l.002.034.002.039v.007l-1.02-1.01c.103.286.127.624.137.954M8.753 8.23c.049.034 1.203.838 2.647 1.209M8.753 8.23a.391.391 0 1 1 .449-.64m-.45.64l.45-.64M11.4 9.44l-.017.047h.002l.002.001.013-.048zm0 0c.675.24.75.962.77 1.623m0 0h-.05m.05 0l-.05.002v-.001m.05 0h-.05m0 0c0 .025 0 .05.004.075.002.252-.014.631-.056.86m.053-.935l-.053.935m0 0c-.495.278-2.315 1.171-5.066 1.171-2.74 0-4.571-.896-5.07-1.174L12.068 12zM9.202 7.59c.012.009 1.099.762 2.406 1.096L9.202 7.59z" fill="#363636" stroke="#363636" stroke-width=".1"></path>
		</symbol>
	
		<symbol id="insta" viewBox="0 0 18 18">
			<path d="M13.127 0H4.872A4.878 4.878 0 0 0 0 4.872v8.256A4.878 4.878 0 0 0 4.872 18h8.256A4.878 4.878 0 0 0 18 13.128V4.872A4.878 4.878 0 0 0 13.127 0zM9 13.922A4.927 4.927 0 0 1 4.078 9 4.927 4.927 0 0 1 9 4.078 4.927 4.927 0 0 1 13.922 9 4.927 4.927 0 0 1 9 13.922zm5.04-8.683a1.456 1.456 0 0 1-1.455-1.454c0-.802.652-1.455 1.454-1.455.802 0 1.455.653 1.455 1.455s-.653 1.454-1.455 1.454z"></path><path d="M9 5.133A3.87 3.87 0 0 0 5.134 9 3.871 3.871 0 0 0 9 12.867 3.87 3.87 0 0 0 12.867 9 3.87 3.87 0 0 0 9 5.133zM14.04 3.386a.4.4 0 1 0 0 .799.4.4 0 0 0 0-.8z"></path>
		</symbol>
	
		<symbol id="left" viewBox="0 0 14 14">
			<path d="M13.394 6.394H2.069L4.771 3.69a.606.606 0 1 0-.857-.857L.178 6.571a.606.606 0 0 0 0 .857l3.736 3.737a.604.604 0 0 0 .857 0 .606.606 0 0 0 0-.857L2.07 7.606h11.325a.606.606 0 0 0 0-1.212z" fill="#041655"></path>
		</symbol>
	
		<symbol id="link-arrow" viewBox="0 0 14 9">
			<path d="M9.042.545l4.083 3.96-4.083 3.95M13.125 4.5H.875" fill="transparent"></path>
		</symbol>
	
		<symbol id="play" viewBox="0 0 60 60">
			<circle cx="30" cy="30" r="29.5" stroke="#fff"></circle><path d="M38 29.5l-11.25 6.495v-12.99L38 29.5z" fill="#fff"></path>
		</symbol>
	
		<symbol id="quotes" viewBox="0 0 40 36">
			<path d="M0 18v17.143h17.143V18H5.714c0-6.302 5.127-11.428 11.429-11.428V.857C7.69.857 0 8.547 0 18zM40 6.572V.857C30.547.857 22.857 8.547 22.857 18v17.143H40V18H28.572c0-6.302 5.127-11.428 11.428-11.428z" fill="#CDCDCD"></path>
		</symbol>
	
		<symbol id="right" viewBox="0 0 14 14">
			<path d="M.606 7.606h11.325L9.229 10.31a.606.606 0 1 0 .857.857l3.736-3.737a.606.606 0 0 0 0-.857l-3.736-3.737a.604.604 0 0 0-.857 0 .606.606 0 0 0 0 .857l2.702 2.702H.606a.606.606 0 0 0 0 1.212z" fill="#041655"></path>
		</symbol>
	
		<symbol id="s-fb" viewBox="0 0 96.124 96.123">
			<path d="M72.089.02L59.624 0C45.62 0 36.57 9.285 36.57 23.656v10.907H24.037a1.96 1.96 0 0 0-1.96 1.961v15.803a1.96 1.96 0 0 0 1.96 1.96H36.57v39.876a1.96 1.96 0 0 0 1.96 1.96h16.352a1.96 1.96 0 0 0 1.96-1.96V54.287h14.654a1.96 1.96 0 0 0 1.96-1.96l.006-15.803a1.963 1.963 0 0 0-1.961-1.961H56.842v-9.246c0-4.444 1.059-6.7 6.848-6.7l8.397-.003a1.96 1.96 0 0 0 1.959-1.96V1.98A1.96 1.96 0 0 0 72.089.02z"></path>
		</symbol>
	
		<symbol id="s-insta" viewBox="0 0 18 18">
			<path d="M13.128 0H4.872A4.878 4.878 0 0 0 0 4.872v8.256A4.878 4.878 0 0 0 4.872 18h8.256A4.878 4.878 0 0 0 18 13.128V4.872A4.878 4.878 0 0 0 13.128 0zM9 13.922A4.927 4.927 0 0 1 4.078 9 4.927 4.927 0 0 1 9 4.078 4.927 4.927 0 0 1 13.922 9 4.927 4.927 0 0 1 9 13.922zm5.04-8.683a1.456 1.456 0 0 1-1.455-1.454c0-.802.652-1.455 1.454-1.455.802 0 1.455.653 1.455 1.455s-.653 1.454-1.455 1.454z"></path><path d="M9 5.134A3.87 3.87 0 0 0 5.132 9a3.871 3.871 0 0 0 3.866 3.867A3.87 3.87 0 0 0 12.866 9a3.87 3.87 0 0 0-3.867-3.866zM14.04 3.386a.4.4 0 1 0 0 .799.4.4 0 0 0 0-.8z"></path>
		</symbol>
	
		<symbol id="s-ok" viewBox="0 0 60 60">
			<title>Монтажная область 2 копия 12</title><path d="M27.46 40.56c-4-.42-7.62-1.41-10.71-3.82a12.69 12.69 0 0 1-1.13-.93 3 3 0 0 1-.42-4.32 3 3 0 0 1 4.05-.91 6.09 6.09 0 0 1 .89.52 17.55 17.55 0 0 0 19.46.18 5.3 5.3 0 0 1 1.9-1 3 3 0 0 1 3.41 1.36 2.9 2.9 0 0 1-.21 3.8 15.83 15.83 0 0 1-5.7 3.68 26.66 26.66 0 0 1-6.43 1.43c.33.36.49.54.7.75 3 3 6 6 8.92 9a3 3 0 0 1 .67 3.48 3.53 3.53 0 0 1-3.31 2.06 3.25 3.25 0 0 1-2.09-1.07c-2.2-2.3-4.46-4.52-6.69-6.77-.64-.67-.95-.54-1.51 0-2.26 2.33-4.56 4.62-6.87 6.89a2.88 2.88 0 0 1-3.47.63 3.52 3.52 0 0 1-2-3.24A3.19 3.19 0 0 1 18 50.1l8.82-8.83c.19-.2.37-.41.66-.71zm0 0" fill-rule="evenodd"></path><path d="M29.9 30.32a13.08 13.08 0 1 1 13.15-12.91A13.09 13.09 0 0 1 29.9 30.32zm6.49-13.09A6.4 6.4 0 1 0 30 23.64a6.36 6.36 0 0 0 6.36-6.41zm0 0" fill-rule="evenodd"></path>
		</symbol>
	
		<symbol id="s-tw" viewBox="0 0 612 612">
			<path d="M612 116.258a250.714 250.714 0 0 1-72.088 19.772c25.929-15.527 45.777-40.155 55.184-69.411-24.322 14.379-51.169 24.82-79.775 30.48-22.907-24.437-55.49-39.658-91.63-39.658-69.334 0-125.551 56.217-125.551 125.513 0 9.828 1.109 19.427 3.251 28.606-104.326-5.24-196.835-55.223-258.75-131.174-10.823 18.51-16.98 40.078-16.98 63.101 0 43.559 22.181 81.993 55.835 104.479a125.556 125.556 0 0 1-56.867-15.756v1.568c0 60.806 43.291 111.554 100.693 123.104-10.517 2.83-21.607 4.398-33.08 4.398-8.107 0-15.947-.803-23.634-2.333 15.985 49.907 62.336 86.199 117.253 87.194-42.947 33.654-97.099 53.655-155.916 53.655-10.134 0-20.116-.612-29.944-1.721 55.567 35.681 121.536 56.485 192.438 56.485 230.948 0 357.188-191.291 357.188-357.188l-.421-16.253c24.666-17.593 46.005-39.697 62.794-64.861z"></path>
		</symbol>
	
		<symbol id="s-vk" viewBox="0 0 60 60">
			<title>Монтажная область 2 копия 11</title><path d="M51 34.38a78.73 78.73 0 0 1 5.69 5.72 16.59 16.59 0 0 1 2 2.94c.78 1.52.07 3.19-1.29 3.28h-8.46a6.53 6.53 0 0 1-5.39-2.19c-1.18-1.2-2.26-2.47-3.39-3.7a8.18 8.18 0 0 0-1.52-1.36 1.77 1.77 0 0 0-2.82.69 8.82 8.82 0 0 0-.89 4c-.09 2-.7 2.52-2.7 2.61a21.64 21.64 0 0 1-12.11-2.61A26.79 26.79 0 0 1 12 36.08 102.21 102.21 0 0 1 1.24 17c-.68-1.51-.19-2.32 1.48-2.35q4.14-.07 8.29 0a2.44 2.44 0 0 1 2.3 1.72 51.49 51.49 0 0 0 5.61 10.41 8.92 8.92 0 0 0 2.13 2.33 1.29 1.29 0 0 0 2.19-.64 7.16 7.16 0 0 0 .48-2.19 32.64 32.64 0 0 0-.13-7.65 3.19 3.19 0 0 0-2.72-2.92c-.81-.15-.69-.45-.3-.91a3 3 0 0 1 2.6-1.3h9.57c1.51.3 1.84 1 2 2.49v10.59c0 .59.3 2.33 1.35 2.72.85.27 1.41-.4 1.91-.94a32.59 32.59 0 0 0 5.39-8.28c.65-1.31 1.21-2.67 1.75-4a2 2 0 0 1 2.16-1.48h9.21a5.42 5.42 0 0 1 .81.05c1.56.27 2 .94 1.5 2.45a22.74 22.74 0 0 1-3.66 6.35c-1.54 2.12-3.18 4.18-4.7 6.31-1.4 2-1.29 2.94.45 4.64zm0 0" fill-rule="evenodd"></path>
		</symbol>
	
		<symbol id="s-youtube" viewBox="0 0 18 12">
			<path clip-rule="evenodd" d="M15.3 0H2.7C1.2 0 0 1.143 0 2.571v6.881c0 1.405 1.2 2.572 2.7 2.572h12.625c1.475 0 2.7-1.143 2.7-2.572v-6.88C18 1.141 16.8 0 15.3 0zM7.2 8.905V2.452l5.15 3.238L7.2 8.905z"></path>
		</symbol>
	
		<symbol id="s-yt" viewBox="0 0 21 14">
			<path clip-rule="evenodd" d="M17.825 0H3.145C1.399 0 0 1.33 0 2.994v8.012C0 12.642 1.398 14 3.146 14h14.708C19.573 14 21 12.67 21 11.006V2.994C20.97 1.331 19.573 0 17.825 0zM8.388 10.368V2.855l6 3.77-6 3.743z"></path>
		</symbol>
	
		<symbol id="search-toggler" viewBox="0 0 19 19">
			<path d="M14.2 14.2L18 18m-1.546-9.273A7.727 7.727 0 1 1 1 8.727a7.727 7.727 0 0 1 15.454 0z" stroke="#fff" stroke-miterlimit="10" stroke-linecap="round" stroke-linejoin="round"></path>
		</symbol>
	
		<symbol id="searcher" viewBox="0 0 20 20">
			<path d="M14.715 14.715l3.947 3.947m-1.606-9.634A8.028 8.028 0 1 1 1 9.028a8.028 8.028 0 0 1 16.056 0z" fill="transparent"></path>
		</symbol>
	
		<symbol id="up" viewBox="0 0 11 17">
			<g clip-path="url(#a)" stroke="#fff" stroke-miterlimit="10" stroke-linecap="round" stroke-linejoin="round"><path d="M.667 6.02l4.839-4.958 4.827 4.959M5.5 1.063v14.874"></path></g><defs><clipPath id="a"><path fill="#fff" transform="rotate(-90 8.5 8.5)" d="M0 0h17v11H0z"></path></clipPath></defs>
		</symbol>
	
		<symbol id="weather-1" viewBox="0 0 20 14">
			<path d="M15.397 5.272c2.08 0 3.753 1.77 3.753 3.939 0 2.168-1.673 3.939-3.753 3.939H4.288C2.477 13.142.99 11.672.858 9.792.732 7.967 1.921 6.331 3.625 5.974a4.39 4.39 0 0 1-.087-.868m11.859.166l-11.71-.166m11.71.166c-.108 0-.216.005-.324.014m.324-.014v.15m-11.86-.316h.15m-.15 0h.15m-.15 0c0-1.992 1.316-3.724 3.178-4.156 1.82-.421 3.667.514 4.494 2.246m-7.521 1.91c-.002-1.927 1.272-3.595 3.06-4.01 1.79-.414 3.612.536 4.38 2.285m.08-.185a2.98 2.98 0 0 0-.13.044l.05.14m.08-.184c.02.04.04.082.058.124l-.137.06m.08-.184a2.97 2.97 0 0 1 .886-.135c1.35.003 2.54.904 2.978 2.225M11.13 3.381c.31-.113.637-.17.965-.17 1.32.003 2.485.91 2.873 2.238m.106-.163a3.646 3.646 0 0 0-.125.014l.019.149m.106-.163l.038.12-.144.043m0 0c.143-.018.286-.027.43-.027M4.288 13c-1.724-.008-3.152-1.41-3.279-3.218C.886 8.026 2.03 6.46 3.657 6.12L4.288 13zm0 0h11.11C17.386 13 19 11.303 19 9.21c0-2.092-1.613-3.788-3.603-3.788M4.288 13l11.11-7.578M4.571 6.634a.479.479 0 0 0 .052-.414c-.572-1.722.282-3.6 1.9-4.218 1.614-.617 3.408.244 4.019 1.948.042.12.131.218.248.27.118.05.25.047.366-.008.294-.145.614-.219.937-.22 1.066.003 1.992.793 2.207 1.905a.45.45 0 0 0 .532.365c.186-.039.375-.059.564-.059 1.569 0 2.853 1.34 2.853 3.008s-1.285 3.007-2.853 3.007H4.288c-1.392.007-2.54-1.168-2.562-2.65-.02-1.481 1.095-2.691 2.486-2.729a.447.447 0 0 0 .36-.205zm0 0l-.125-.082m.125.082l-.125-.082m0 0a.329.329 0 0 0 .035-.284m-.035.284a.297.297 0 0 1-.24.137l.275-.421m0 0c-.596-1.794.29-3.758 1.989-4.406 1.698-.649 3.576.26 4.213 2.038L4.482 6.268zm10.915-.215c1.658 0 3.003 1.414 3.003 3.158s-1.345 3.157-3.003 3.157H4.288l11.11-6.315z" fill="#FFF" stroke="#fff"></path>
		</symbol>
	
</svg>
