<svg width="40" height="40" viewBox="0 0 40 40" fill="none" xmlns="http://www.w3.org/2000/svg">
<path d="M35.5015 12.7097H13.4054L34.0079 2.98554L32.8945 0.626404L7.29367 12.7097H4.49852C2.01406 12.7097 0 14.7237 0 17.2081V34.8751C0 37.3595 2.01406 39.3736 4.49852 39.3736H35.5015C37.9859 39.3736 40 37.3595 40 34.8751V17.2081C40 14.7237 37.9859 12.7097 35.5015 12.7097ZM6.64297 33.928H4.2132V31.3194H6.64297V33.928ZM11.0063 33.928H8.57648V31.3194H11.0063V33.928ZM15.3695 33.928H12.9398V31.3194H15.3696V33.928H15.3695ZM15.3695 29.5401H4.2132V26.9314H15.3695V29.5401ZM15.3695 25.1519H4.2132V22.5433H15.3695V25.1519ZM15.3695 20.764H4.2132V18.1553H15.3695V20.764ZM27.8076 33.928C23.459 33.928 19.9212 30.3902 19.9212 26.0416C19.9212 21.693 23.459 18.1552 27.8076 18.1552C32.1562 18.1552 35.694 21.693 35.694 26.0416C35.694 30.3902 32.1562 33.928 27.8076 33.928Z" fill="#041655"/>
</svg>
