<svg width="20" height="20" viewBox="0 0 20 20" fill="none" xmlns="http://www.w3.org/2000/svg">
<path d="M16.1218 0H3.88021C3.41995 0 3.04688 0.373072 3.04688 0.833331V16.9416C3.04688 17.4019 3.41995 17.775 3.88021 17.775H5.17604V19.5833C5.17604 19.8134 5.36255 19.9999 5.59265 20C5.71447 20 5.8302 19.9467 5.90937 19.8541L6.82603 18.7875L7.7427 19.8541C7.89228 20.029 8.1553 20.0495 8.33014 19.9C8.42269 19.8208 8.47603 19.7051 8.47603 19.5833V17.775H16.1218C16.5821 17.775 16.9552 17.4019 16.9552 16.9416V0.833331C16.9552 0.373072 16.5821 0 16.1218 0ZM7.1427 17.8625C6.99311 17.6876 6.73009 17.667 6.55525 17.8166C6.53879 17.8306 6.52348 17.846 6.50937 17.8625L6.00937 18.4458V16.8625C6.53577 17.0607 7.11629 17.0607 7.6427 16.8625V18.4458L7.1427 17.8625ZM8.33853 14.6458C8.33858 15.4839 7.66405 16.1658 6.82603 16.175H6.80937C5.96484 16.175 5.2802 15.4903 5.2802 14.6458C5.2802 13.8013 5.96484 13.1166 6.80937 13.1166C7.65389 13.1166 8.33853 13.8013 8.33853 14.6458ZM16.101 16.9375H8.47603V16.3333C9.40983 15.422 9.42811 13.9263 8.51686 12.9925C7.60561 12.0587 6.10984 12.0404 5.17604 12.9516C4.24224 13.8629 4.22396 15.3587 5.1352 16.2925C5.14864 16.3063 5.16223 16.3199 5.17604 16.3333V16.9375H3.88021V0.833331H16.1218L16.101 16.9375Z" fill="#041655"/>
<path d="M13.6212 3.2959H6.37956C6.14945 3.2959 5.96289 3.48246 5.96289 3.71256C5.96289 3.94267 6.14945 4.12923 6.37956 4.12923H13.6212C13.8513 4.12923 14.0379 3.94267 14.0379 3.71256C14.0379 3.48246 13.8514 3.2959 13.6212 3.2959Z" fill="#041655"/>
<path d="M13.6212 5.69189H6.37956C6.14945 5.69189 5.96289 5.87846 5.96289 6.10856C5.96289 6.33866 6.14945 6.52523 6.37956 6.52523H13.6212C13.8513 6.52523 14.0379 6.33866 14.0379 6.10856C14.0379 5.87846 13.8514 5.69189 13.6212 5.69189Z" fill="#041655"/>
<path d="M13.6212 8.08765H6.37956C6.14945 8.08765 5.96289 8.27421 5.96289 8.50431C5.96289 8.73441 6.14945 8.92098 6.37956 8.92098H13.6212C13.8513 8.92098 14.0379 8.73441 14.0379 8.50431C14.0379 8.27421 13.8514 8.08765 13.6212 8.08765Z" fill="#041655"/>
<path d="M13.6212 10.4834H6.37956C6.14945 10.4834 5.96289 10.67 5.96289 10.9001C5.96289 11.1302 6.14945 11.3167 6.37956 11.3167H13.6212C13.8513 11.3167 14.0379 11.1302 14.0379 10.9001C14.0379 10.67 13.8514 10.4834 13.6212 10.4834Z" fill="#041655"/>
<path d="M13.6195 12.8792H10.3112C10.0811 12.8792 9.89453 13.0657 9.89453 13.2958C9.89453 13.5259 10.0811 13.7125 10.3112 13.7125H13.6195C13.8496 13.7125 14.0362 13.5259 14.0362 13.2958C14.0362 13.0657 13.8497 12.8792 13.6195 12.8792Z" fill="#041655"/>
</svg>
