<svg width="13" height="13" viewBox="0 0 13 13" fill="none" xmlns="http://www.w3.org/2000/svg">
<g clip-path="url(#clip0)">
<path d="M11.8377 11.6072C12.1299 11.6072 12.3831 11.5107 12.5983 11.3202L8.91524 7.63698C8.82687 7.70026 8.74122 7.76179 8.66031 7.8203C8.38468 8.02337 8.16098 8.18184 7.9892 8.29539C7.81745 8.4092 7.58893 8.5252 7.30368 8.64364C7.01823 8.76221 6.75231 8.82131 6.50561 8.82131H6.49839H6.49117C6.24446 8.82131 5.97853 8.76224 5.69311 8.64364C5.40768 8.5252 5.17917 8.4092 5.00758 8.29539C4.83583 8.18184 4.61224 8.02339 4.33647 7.8203C4.25962 7.76396 4.1744 7.70214 4.08225 7.63599L0.398438 11.3202C0.613666 11.5107 0.867037 11.6072 1.15923 11.6072H11.8377Z" fill="#646464"/>
<path d="M0.732779 5.3175C0.457176 5.13375 0.212774 4.92332 0 4.68628V10.29L3.24628 7.04377C2.59684 6.59037 1.76007 6.0156 0.732779 5.3175Z" fill="#646464"/>
<path d="M12.2734 5.3175C11.2853 5.98629 10.4455 6.56204 9.75391 7.04506L12.9989 10.2902V4.68628C12.7908 4.91855 12.549 5.12885 12.2734 5.3175Z" fill="#646464"/>
<path d="M11.8371 1.39282H1.15869C0.78615 1.39282 0.499736 1.51862 0.299094 1.76996C0.0982856 2.02142 -0.00195312 2.3359 -0.00195312 2.71304C-0.00195312 3.01767 0.131069 3.34775 0.396996 3.70336C0.662922 4.05884 0.94589 4.33805 1.24576 4.54115C1.41015 4.6573 1.90589 5.00194 2.73298 5.57495C3.17947 5.88435 3.56775 6.15403 3.90141 6.38675C4.18582 6.58492 4.43109 6.75653 4.6336 6.89894C4.65685 6.91525 4.69341 6.9414 4.74193 6.9761C4.79421 7.01365 4.86037 7.0613 4.94199 7.12024C5.09915 7.23391 5.22972 7.32579 5.33371 7.39598C5.43756 7.4662 5.56339 7.54463 5.711 7.63172C5.85849 7.7187 5.9976 7.7841 6.12816 7.8276C6.25876 7.87107 6.37965 7.89288 6.49086 7.89288H6.49808H6.50531C6.6165 7.89288 6.73741 7.87107 6.86802 7.8276C6.99857 7.7841 7.13756 7.71884 7.28517 7.63172C7.43264 7.54463 7.5583 7.46603 7.66248 7.39598C7.76647 7.32579 7.89704 7.23393 8.05423 7.12024C8.13568 7.0613 8.20183 7.01363 8.25411 6.97622C8.30266 6.94138 8.3392 6.91539 8.36259 6.89894C8.52035 6.78917 8.76619 6.61827 9.09671 6.38876C9.69815 5.97088 10.5839 5.35583 11.7577 4.54115C12.1107 4.29458 12.4056 3.99702 12.6427 3.64891C12.8793 3.3008 12.9979 2.93565 12.9979 2.55358C12.9979 2.23436 12.8829 1.96121 12.6534 1.73371C12.4236 1.50649 12.1515 1.39282 11.8371 1.39282Z" fill="#646464"/>
</g>
<defs>
<clipPath id="clip0">
<rect width="13" height="13" fill="white"/>
</clipPath>
</defs>
</svg>
