<svg width="16" height="15" viewBox="0 0 16 15" fill="none" xmlns="http://www.w3.org/2000/svg">
<path d="M13.8003 0H2.19971C0.986816 0 0 1.00537 0 2.2415V9.47571C0 10.7091 0.982519 11.7128 2.19189 11.7172V15L6.82168 11.7172H13.8003C15.0132 11.7172 16 10.7116 16 9.47571V2.2415C16 1.00537 15.0132 0 13.8003 0ZM15.0625 9.47571C15.0625 10.1848 14.4963 10.7619 13.8003 10.7619H6.52754L3.12939 13.1715V10.7619H2.19971C1.50371 10.7619 0.9375 10.1848 0.9375 9.47571V2.2415C0.9375 1.53218 1.50371 0.955313 2.19971 0.955313H13.8003C14.4963 0.955313 15.0625 1.53218 15.0625 2.2415V9.47571Z" fill="black"/>
</svg>
