<svg width="20" height="20" viewBox="0 0 20 20" fill="none" xmlns="http://www.w3.org/2000/svg">
<path d="M19.96 8.56153C19.8906 8.41387 19.7426 8.3194 19.5787 8.3194H18.3332C17.5413 4.02205 13.7678 0.75531 9.24491 0.75531C4.14757 0.75531 0 4.90288 0 10.0002C0 15.0976 4.14715 19.2447 9.24491 19.2447C12.5346 19.2447 15.6026 17.4741 17.2515 14.6248C17.4839 14.2227 17.3469 13.7091 16.9443 13.4763C16.5426 13.2436 16.0286 13.3806 15.7967 13.7827C14.4469 16.115 11.9363 17.5643 9.24491 17.5643C5.07436 17.5643 1.68082 14.1712 1.68082 10.0011C1.68082 5.8301 5.07436 2.43698 9.24491 2.43698C12.8372 2.43698 15.8469 4.9565 16.6137 8.31983H15.378C15.2141 8.31983 15.0665 8.4143 14.9967 8.56195C14.9273 8.70961 14.9499 8.88365 15.0546 9.00918L17.1558 11.5304C17.2358 11.6261 17.3537 11.6815 17.4788 11.6815C17.6035 11.6815 17.7218 11.6257 17.8013 11.5304L19.9026 9.00918C20.0072 8.88322 20.0294 8.70918 19.96 8.56153Z" fill="#0094FF"/>
<path d="M9.24502 2.85654C8.78078 2.85654 8.40461 3.2327 8.40461 3.69694V8.79641C8.02462 9.06279 7.77441 9.50193 7.77441 10.0006C7.77441 10.8117 8.4344 11.4717 9.24545 11.4717C9.46757 11.4717 9.67693 11.4185 9.86586 11.3295L12.7892 13.0167C12.922 13.0938 13.0658 13.1299 13.2088 13.1299C13.499 13.1299 13.7815 12.9793 13.9373 12.7095C14.1692 12.3083 14.0317 11.7938 13.6292 11.5619L10.7029 9.87213C10.6637 9.42789 10.4327 9.03981 10.0863 8.79726V3.69694C10.0854 3.23312 9.70884 2.85654 9.24502 2.85654ZM9.24502 10.6304C8.89737 10.6304 8.61482 10.3474 8.61482 10.0006C8.61482 9.65341 8.89779 9.37044 9.24502 9.37044C9.59225 9.37044 9.87522 9.65341 9.87522 10.0006C9.87522 10.3474 9.59225 10.6304 9.24502 10.6304Z" fill="#0094FF"/>
</svg>
