<svg width="12" height="15" viewBox="0 0 12 15" fill="none" xmlns="http://www.w3.org/2000/svg">
<path d="M7.81249 0H1.78788C0.907744 0 0.191406 0.716835 0.191406 1.59648V7.49997V12.6881V13.4035C0.191406 14.2841 0.907744 15 1.78788 15H10.0082C10.8878 15 11.6042 14.2841 11.6042 13.4035V3.77844L7.81249 0ZM10.0082 14.0223H1.78788C1.44709 14.0223 1.16958 13.7448 1.16958 13.4035V12.6881V7.49997V1.59648C1.16958 1.25618 1.44712 0.978668 1.78788 0.978668L7.44672 0.972757V3.06446C7.44672 3.67543 7.94244 4.17162 8.55387 4.17162L10.6029 4.16574L10.626 13.4035C10.626 13.7448 10.349 14.0223 10.0082 14.0223Z" fill="white"/>
</svg>
