<svg width="15" height="13" viewBox="0 0 15 13" fill="none" xmlns="http://www.w3.org/2000/svg">
<path d="M14.4143 2.58592C14.0236 2.19532 13.5524 1.99997 13.0002 1.99997H11.2502L10.8519 0.937534C10.7529 0.682364 10.572 0.462275 10.3088 0.277294C10.0457 0.0923957 9.77624 -0.00012207 9.50016 -0.00012207H5.50006C5.22401 -0.00012207 4.95445 0.0923957 4.6914 0.277294C4.42835 0.462275 4.24742 0.682364 4.14844 0.937534L3.75002 1.99997H2.00001C1.44783 1.99997 0.976567 2.19532 0.585891 2.58592C0.195297 2.97654 0 3.44785 0 3.99998V11.0001C0 11.5522 0.195297 12.0236 0.585891 12.4141C0.976567 12.8048 1.44786 13.0001 2.00001 13.0001H13C13.5522 13.0001 14.0234 12.8048 14.4141 12.4141C14.8046 12.0236 15 11.5522 15 11.0001V3.99998C15.0001 3.44785 14.8048 2.97654 14.4143 2.58592ZM9.97271 9.97278C9.28782 10.6577 8.46367 11.0002 7.50004 11.0002C6.53642 11.0002 5.71232 10.6577 5.02737 9.97278C4.34242 9.28797 4.00002 8.46363 4.00002 7.50022C4.00002 6.53651 4.34253 5.71245 5.02737 5.0275C5.71224 4.34255 6.53645 4.00014 7.50004 4.00014C8.46364 4.00014 9.28782 4.34263 9.97271 5.0275C10.6576 5.71236 11.0001 6.53651 11.0001 7.50022C11.0001 8.46363 10.6577 9.28789 9.97271 9.97278Z" fill="#041655"/>
<path d="M7.50009 5.25003C6.88027 5.25003 6.35031 5.47009 5.91019 5.91027C5.47006 6.35039 5.25 6.88027 5.25 7.50023C5.25 8.11995 5.47006 8.64991 5.91019 9.09003C6.35031 9.53007 6.88024 9.75013 7.50009 9.75013C8.11983 9.75013 8.64985 9.53007 9.08997 9.09003C9.5301 8.64991 9.75019 8.11998 9.75019 7.50023C9.75019 6.8803 9.5301 6.35042 9.08997 5.91027C8.64988 5.47012 8.11983 5.25003 7.50009 5.25003Z" fill="#041655"/>
</svg>
