<svg width="10" height="10" viewBox="0 0 10 10" fill="none" xmlns="http://www.w3.org/2000/svg">
<path d="M5.00644 0C2.23938 0 0 2.23938 0 5.00644C0 7.76062 2.23938 10.0129 5.00644 10.0129C7.76062 10.0129 10.0129 7.77349 10.0129 5.00644C10 2.23938 7.76062 0 5.00644 0ZM5.00644 8.94466C2.8314 8.94466 1.06821 7.1686 1.06821 5.00644C1.06821 2.8314 2.8314 1.06821 5.00644 1.06821C7.18147 1.06821 8.94466 2.8314 8.94466 5.00644C8.94466 7.1686 7.1686 8.94466 5.00644 8.94466Z"/>
<path d="M7.60628 4.852H5.36689V2.1493C5.36689 1.91764 5.18671 1.73746 4.95505 1.73746C4.72339 1.73746 4.54321 1.91764 4.54321 2.1493V5.26384C4.54321 5.4955 4.72339 5.67568 4.95505 5.67568H7.61915C7.85081 5.67568 8.03099 5.4955 8.03099 5.26384C8.01812 5.03218 7.83794 4.852 7.60628 4.852Z"/>
</svg>
