<svg width="12" height="12" viewBox="0 0 12 12" fill="none" xmlns="http://www.w3.org/2000/svg">
<path d="M10.7082 0H6.15407C6.06086 0 5.97142 0.0370787 5.9055 0.102997L0.377654 5.63066C-0.125885 6.13438 -0.125885 6.95387 0.377654 7.45741L4.54247 11.6221C4.78563 11.8653 5.11 11.9992 5.4557 11.9993H5.45579C5.80159 11.9993 6.12596 11.8653 6.36921 11.622L11.8969 6.09428C11.9628 6.02836 11.9999 5.93892 11.9999 5.84572L12 1.29162C11.9999 0.579436 11.4203 0 10.7082 0ZM11.2968 5.70015L5.87199 11.1249C5.76158 11.2354 5.61372 11.2962 5.45579 11.2962C5.29777 11.2962 5.15001 11.2354 5.0396 11.125L0.874784 6.96028C0.645353 6.73084 0.645353 6.35731 0.874784 6.12779L6.29963 0.703123H10.7082C11.0327 0.703123 11.2968 0.96716 11.2968 1.29171L11.2968 5.70015Z" fill="#041655"/>
<path d="M8.90155 1.99402C8.60648 1.99402 8.32907 2.10901 8.12042 2.31766C7.91177 2.52621 7.79688 2.80362 7.79688 3.09869C7.79688 3.39377 7.91177 3.67117 8.12042 3.87982C8.32907 4.08847 8.60648 4.20337 8.90155 4.20337C9.19653 4.20337 9.47394 4.08847 9.68259 3.87982C9.89124 3.67117 10.0061 3.39377 10.0061 3.09869C10.0061 2.80362 9.89124 2.52621 9.68268 2.31766C9.47403 2.10901 9.19662 1.99402 8.90155 1.99402ZM9.18546 3.3826C9.10965 3.4585 9.00876 3.50024 8.90155 3.50024C8.79425 3.50024 8.69345 3.4585 8.61765 3.3826C8.54175 3.30679 8.5 3.2059 8.5 3.09869C8.5 2.99149 8.54175 2.89059 8.61765 2.81479C8.69345 2.73889 8.79434 2.69714 8.90155 2.69714C9.00876 2.69714 9.10956 2.73889 9.18546 2.81479C9.26135 2.89059 9.3031 2.99149 9.3031 3.09869C9.3031 3.2059 9.26126 3.30679 9.18546 3.3826Z" fill="#041655"/>
</svg>
