<svg width="13" height="13" viewBox="0 0 13 13" fill="none" xmlns="http://www.w3.org/2000/svg">
<path d="M6.49936 0C4.11 0 2.16602 1.94398 2.16602 4.33334C2.16602 5.05063 2.34535 5.76182 2.68627 6.39262L6.26239 12.8604C6.30999 12.9466 6.40071 13 6.49936 13C6.598 13 6.68872 12.9466 6.73633 12.8604L10.3138 6.39049C10.6534 5.76182 10.8327 5.0506 10.8327 4.33332C10.8327 1.94398 8.88872 0 6.49936 0ZM6.49936 6.5C5.30468 6.5 4.3327 5.52802 4.3327 4.33334C4.3327 3.13866 5.30468 2.16668 6.49936 2.16668C7.69404 2.16668 8.66602 3.13866 8.66602 4.33334C8.66602 5.52802 7.69404 6.5 6.49936 6.5Z" fill="#041655"/>
</svg>
