<svg width="12" height="12" viewBox="0 0 12 12" fill="none" xmlns="http://www.w3.org/2000/svg">
<g opacity="0.5">
<path d="M11.5929 5.48402C11.3211 5.21229 10.9954 5.07649 10.6156 5.07649H10.1541V3.23033C10.1541 3.03809 10.1059 2.82644 10.0097 2.59577C9.91356 2.36501 9.79825 2.18233 9.66367 2.0477L8.56735 0.951511C8.43277 0.817006 8.2501 0.701572 8.01943 0.60536C7.78862 0.50925 7.5772 0.461182 7.38477 0.461182H2.53853C2.34621 0.461182 2.18271 0.528447 2.04808 0.663077C1.91352 0.797632 1.84616 0.961109 1.84616 1.15346V5.07649H1.38465C1.00483 5.07649 0.679114 5.21236 0.407428 5.48402C0.135792 5.75561 0 6.08135 0 6.46119V9.46129C0 9.52388 0.0228594 9.57771 0.0685024 9.6236C0.114196 9.66917 0.168301 9.69198 0.230741 9.69198H1.84616V10.8458C1.84616 11.0382 1.91345 11.2017 2.04808 11.3363C2.18271 11.4708 2.34621 11.5382 2.53853 11.5382H9.4616C9.65384 11.5382 9.81757 11.4708 9.95208 11.3363C10.0867 11.2016 10.154 11.0382 10.154 10.8458V9.69198H11.7694C11.8318 9.69198 11.8859 9.66917 11.9315 9.6236C11.9772 9.57773 12 9.52388 12 9.46129V6.46119C12.0001 6.08135 11.8644 5.75561 11.5929 5.48402ZM9.23088 10.6151H2.7693V8.76899H9.23088V10.6151ZM9.23088 5.99964H2.7693V1.38427H7.38477V2.53808C7.38477 2.73041 7.45219 2.89381 7.58662 3.02846C7.7212 3.16309 7.88465 3.23036 8.07707 3.23036H9.23088V5.99964ZM10.9401 6.78567C10.8488 6.87696 10.7406 6.92278 10.6156 6.92278C10.4906 6.92278 10.3824 6.87698 10.2911 6.78567C10.1998 6.69449 10.1541 6.58618 10.1541 6.46117C10.1541 6.33616 10.1998 6.22798 10.2911 6.13667C10.3823 6.0453 10.4905 5.99961 10.6156 5.99961C10.7406 5.99961 10.8488 6.0453 10.9401 6.13667C11.0313 6.22795 11.0772 6.33616 11.0772 6.46117C11.0772 6.58618 11.0314 6.69449 10.9401 6.78567Z" fill="#041655"/>
</g>
</svg>
