<svg width="18" height="18" viewBox="0 0 18 18" fill="none" xmlns="http://www.w3.org/2000/svg">
<path d="M13.1275 0H4.87243C2.18573 0 0 2.18573 0 4.87243V13.1277C0 15.8142 2.18573 18 4.87243 18H13.1277C15.8142 18 18 15.8142 18 13.1277V4.87243C18 2.18573 15.8142 0 13.1275 0V0ZM8.99998 13.9217C6.28609 13.9217 4.07825 11.7139 4.07825 8.99998C4.07825 6.28609 6.28609 4.07825 8.99998 4.07825C11.7139 4.07825 13.9217 6.28609 13.9217 8.99998C13.9217 11.7139 11.7139 13.9217 8.99998 13.9217ZM14.0394 5.23896C13.2374 5.23896 12.5851 4.58665 12.5851 3.78465C12.5851 2.98265 13.2374 2.3302 14.0394 2.3302C14.8414 2.3302 15.4939 2.98265 15.4939 3.78465C15.4939 4.58665 14.8414 5.23896 14.0394 5.23896Z"/>
<path d="M9.00004 5.13348C6.86815 5.13348 5.13354 6.86795 5.13354 8.99998C5.13354 11.1319 6.86815 12.8665 9.00004 12.8665C11.1321 12.8665 12.8665 11.1319 12.8665 8.99998C12.8665 6.86795 11.1321 5.13348 9.00004 5.13348Z"/>
<path d="M14.0395 3.38562C13.8195 3.38562 13.6404 3.5647 13.6404 3.7847C13.6404 4.0047 13.8195 4.18378 14.0395 4.18378C14.2596 4.18378 14.4387 4.00484 14.4387 3.7847C14.4387 3.56456 14.2596 3.38562 14.0395 3.38562Z"/>
</svg>
