<svg width="14" height="14" viewBox="0 0 14 14" fill="none" xmlns="http://www.w3.org/2000/svg">
<path d="M13.3939 6.39372H2.06904L4.77133 3.69126C5.00806 3.45466 5.00806 3.07085 4.77133 2.83429C4.53459 2.59755 4.15078 2.59755 3.9144 2.83429L0.177553 6.5712C-0.0591844 6.8078 -0.0591844 7.19164 0.177553 7.42817L3.9144 11.1653C4.03273 11.2837 4.18781 11.3428 4.34286 11.3428C4.49791 11.3428 4.65299 11.2837 4.77133 11.1653C5.00806 10.9287 5.00806 10.5449 4.77133 10.3083L2.06904 7.60572H13.3939C13.7286 7.60572 14 7.33437 14 6.9997C14 6.66504 13.7286 6.39372 13.3939 6.39372Z" fill="#041655"/>
</svg>
