<svg width="14" height="14" viewBox="0 0 14 14" fill="none" xmlns="http://www.w3.org/2000/svg">
<path d="M0.606054 7.60628L11.931 7.60628L9.22867 10.3087C8.99194 10.5453 8.99194 10.9291 9.22867 11.1657C9.46541 11.4024 9.84922 11.4024 10.0856 11.1657L13.8224 7.4288C14.0592 7.1922 14.0592 6.80836 13.8224 6.57183L10.0856 2.83474C9.96727 2.71634 9.81219 2.65722 9.65714 2.65722C9.50209 2.65722 9.34701 2.71634 9.22867 2.83474C8.99194 3.07134 8.99194 3.45515 9.22867 3.69167L11.931 6.39428L0.606054 6.39428C0.271388 6.39428 0 6.66563 0 7.0003C0 7.33496 0.271353 7.60628 0.606054 7.60628Z" fill="#041655"/>
</svg>
