<svg width="18" height="18" viewBox="0 0 18 18" fill="none" xmlns="http://www.w3.org/2000/svg">
<path d="M13.1276 0H4.87244C2.18573 0 0 2.18573 0 4.87244V13.1277C0 15.8143 2.18573 18 4.87244 18H13.1277C15.8143 18 18 15.8143 18 13.1277V4.87244C18 2.18573 15.8143 0 13.1276 0V0ZM9 13.9217C6.2861 13.9217 4.07826 11.7139 4.07826 9C4.07826 6.2861 6.2861 4.07826 9 4.07826C11.7139 4.07826 13.9217 6.2861 13.9217 9C13.9217 11.7139 11.7139 13.9217 9 13.9217ZM14.0394 5.23897C13.2374 5.23897 12.5851 4.58665 12.5851 3.78465C12.5851 2.98265 13.2374 2.3302 14.0394 2.3302C14.8414 2.3302 15.4939 2.98265 15.4939 3.78465C15.4939 4.58665 14.8414 5.23897 14.0394 5.23897Z" />
<path d="M8.99933 5.13382C6.86742 5.13382 5.13281 6.86829 5.13281 9.00032C5.13281 11.1322 6.86742 12.8668 8.99933 12.8668C11.1314 12.8668 12.8658 11.1322 12.8658 9.00032C12.8658 6.86829 11.1314 5.13382 8.99933 5.13382Z" />
<path d="M14.0397 3.38574C13.8197 3.38574 13.6406 3.56482 13.6406 3.78482C13.6406 4.00482 13.8197 4.1839 14.0397 4.1839C14.2599 4.1839 14.439 4.00496 14.439 3.78482C14.439 3.56468 14.2599 3.38574 14.0397 3.38574Z" />
</svg>
