<svg id="Слой_1" data-name="Слой 1" xmlns="http://www.w3.org/2000/svg" viewBox="0 0 60 60"><title>Монтажная область 2 копия 12</title><path d="M27.46,40.56c-4-.42-7.62-1.41-10.71-3.82a12.69,12.69,0,0,1-1.13-.93,3,3,0,0,1-.42-4.32,3,3,0,0,1,4.05-.91,6.09,6.09,0,0,1,.89.52,17.55,17.55,0,0,0,19.46.18,5.3,5.3,0,0,1,1.9-1,3,3,0,0,1,3.41,1.36,2.9,2.9,0,0,1-.21,3.8A15.83,15.83,0,0,1,39,39.12a26.66,26.66,0,0,1-6.43,1.43c.33.36.49.54.7.75,3,3,6,6,8.92,9a3,3,0,0,1,.67,3.48,3.53,3.53,0,0,1-3.31,2.06,3.25,3.25,0,0,1-2.09-1.07C35.26,52.47,33,50.25,30.77,48c-.64-.67-.95-.54-1.51,0-2.26,2.33-4.56,4.62-6.87,6.89a2.88,2.88,0,0,1-3.47.63,3.52,3.52,0,0,1-2-3.24A3.19,3.19,0,0,1,18,50.1l8.82-8.83c.19-.2.37-.41.66-.71Zm0,0" fill-rule="evenodd"/><path d="M29.9,30.32A13.08,13.08,0,1,1,43.05,17.41,13.09,13.09,0,0,1,29.9,30.32Zm6.49-13.09A6.4,6.4,0,1,0,30,23.64a6.36,6.36,0,0,0,6.36-6.41Zm0,0" fill-rule="evenodd"/></svg>