<svg id="Слой_1" data-name="Слой 1" xmlns="http://www.w3.org/2000/svg" viewBox="0 0 60 60"><title>Монтажная область 2 копия 11</title><path d="M51,34.38a78.73,78.73,0,0,1,5.69,5.72,16.59,16.59,0,0,1,2,2.94c.78,1.52.07,3.19-1.29,3.28H48.94a6.53,6.53,0,0,1-5.39-2.19c-1.18-1.2-2.26-2.47-3.39-3.7a8.18,8.18,0,0,0-1.52-1.36,1.77,1.77,0,0,0-2.82.69,8.82,8.82,0,0,0-.89,4c-.09,2-.7,2.52-2.7,2.61a21.64,21.64,0,0,1-12.11-2.61A26.79,26.79,0,0,1,12,36.08,102.21,102.21,0,0,1,1.24,17c-.68-1.51-.19-2.32,1.48-2.35q4.14-.07,8.29,0a2.44,2.44,0,0,1,2.3,1.72,51.49,51.49,0,0,0,5.61,10.41,8.92,8.92,0,0,0,2.13,2.33,1.29,1.29,0,0,0,2.19-.64,7.16,7.16,0,0,0,.48-2.19,32.64,32.64,0,0,0-.13-7.65,3.19,3.19,0,0,0-2.72-2.92c-.81-.15-.69-.45-.3-.91a3,3,0,0,1,2.6-1.3h9.57c1.51.3,1.84,1,2,2.49V26.58c0,.59.3,2.33,1.35,2.72.85.27,1.41-.4,1.91-.94a32.59,32.59,0,0,0,5.39-8.28c.65-1.31,1.21-2.67,1.75-4a2,2,0,0,1,2.16-1.48h9.21a5.42,5.42,0,0,1,.81.05c1.56.27,2,.94,1.5,2.45a22.74,22.74,0,0,1-3.66,6.35c-1.54,2.12-3.18,4.18-4.7,6.31-1.4,2-1.29,2.94.45,4.64Zm0,0" fill-rule="evenodd"/></svg>