<svg width="20" height="14" viewBox="0 0 20 14" fill="none" xmlns="http://www.w3.org/2000/svg">
<path d="M15.397 5.27159H15.3971C17.4768 5.27159 19.15 7.04238 19.15 9.21074C19.15 11.3791 17.4768 13.15 15.3971 13.15H4.28797H4.28727C2.47836 13.1416 0.990916 11.6725 0.859415 9.79204C0.731575 7.96747 1.92056 6.33071 3.62457 5.97372C3.56695 5.68865 3.53764 5.39777 3.53754 5.10586M15.397 5.27159L3.68754 5.1058M15.397 5.27159C15.2888 5.27169 15.1809 5.27666 15.0733 5.28646M15.397 5.27159L15.3971 5.42159M3.53754 5.10586L3.68754 5.1058M3.53754 5.10586C3.53754 5.10587 3.53754 5.10589 3.53754 5.1059L3.68754 5.1058M3.53754 5.10586C3.53623 3.11448 4.85298 1.38216 6.71474 0.95046L6.71475 0.950459C8.53468 0.528532 10.3819 1.46448 11.2088 3.1957M3.68754 5.1058C3.68625 3.17931 4.95956 1.51142 6.74862 1.09658C8.53746 0.681866 10.3598 1.63221 11.1287 3.38086M11.2088 3.1957C11.1648 3.20938 11.121 3.22409 11.0776 3.23983L11.1287 3.38086M11.2088 3.1957C11.2284 3.23684 11.2475 3.27844 11.266 3.32048L11.1287 3.38086M11.2088 3.1957C11.4959 3.10641 11.7942 3.06096 12.0945 3.06129L12.0947 3.06129C13.4453 3.0642 14.6344 3.96471 15.0733 5.28646M11.1287 3.38086C11.4393 3.26835 11.7656 3.21092 12.0943 3.21129C13.4147 3.21413 14.5792 4.12137 14.9668 5.44889M15.0733 5.28646C15.0315 5.29027 14.9897 5.29481 14.948 5.30007L14.9668 5.44889M15.0733 5.28646C15.0865 5.32621 15.099 5.36634 15.1108 5.40684L14.9668 5.44889M14.9668 5.44889C15.1096 5.43086 15.2532 5.42172 15.3971 5.42159M4.28797 13C2.56384 12.992 1.13552 11.5901 1.00905 9.78156C0.886031 8.02582 2.03029 6.4604 3.6568 6.12023L4.28797 13ZM4.28797 13H15.3971C17.387 13 19 11.3035 19 9.21074C19 7.11801 17.387 5.42159 15.3971 5.42159M4.28797 13L15.3971 5.42159M4.57235 6.63423C4.6522 6.51187 4.67088 6.35846 4.62419 6.22028C4.05214 4.49801 4.90589 2.6198 6.52418 2.0018L6.52418 2.0018C8.13843 1.3853 9.93204 2.24607 10.5428 3.94996C10.5852 4.06991 10.6741 4.16832 10.791 4.21917L10.7911 4.2192C10.9086 4.27022 11.0414 4.26739 11.1566 4.2115L11.157 4.21129C11.451 4.06749 11.7708 3.99313 12.0943 3.99276C13.1597 3.99495 14.0857 4.78504 14.3013 5.89674C14.3485 6.14362 14.5821 6.3157 14.8332 6.26245C15.0189 6.22332 15.2078 6.20341 15.3973 6.20318C16.9656 6.20328 18.2496 7.54272 18.2496 9.21074C18.2496 10.8791 16.9655 12.2184 15.3971 12.2184L4.28797 12.2184L4.28728 12.2184C2.89627 12.2248 1.74712 11.0501 1.72611 9.56863C1.70521 8.08703 2.82064 6.87667 4.21154 6.8394L4.21196 6.83939C4.35914 6.83504 4.49239 6.75697 4.57235 6.63423ZM4.57235 6.63423L4.44673 6.55225M4.57235 6.63423C4.57238 6.63418 4.57242 6.63412 4.57245 6.63407L4.44673 6.55225M4.44673 6.55225C4.50122 6.46876 4.51426 6.36317 4.48196 6.26795M4.44673 6.55225C4.39248 6.63561 4.30358 6.68662 4.20753 6.68946L4.48196 6.26795M4.48196 6.26795C3.886 4.47434 4.77249 2.51018 6.47066 1.86167C8.16872 1.21317 10.047 2.12177 10.6841 3.89969L4.48196 6.26795ZM15.3971 6.05318C17.0553 6.05318 18.3996 7.46702 18.3996 9.21074C18.3996 10.9547 17.0553 12.3684 15.3971 12.3684H4.28797L15.3971 6.05318Z" fill="#FFF" stroke="white" stroke-width="1"/>
</svg>
