<svg width="40" height="38" viewBox="0 0 40 38" fill="none" xmlns="http://www.w3.org/2000/svg">
<path d="M6.88223 7.36203L6.89858 7.54415H7.08143H38.3566C39.2952 7.54415 39.9836 8.42763 39.7563 9.33677L36.4184 22.6875C36.2654 23.2992 35.7328 23.7408 35.1034 23.7778L8.85034 25.3207L8.56625 25.3374L8.6782 25.599C9.17827 26.7677 10.3368 27.5701 11.6667 27.5701H30.0126C32.6483 27.5701 34.7929 29.7147 34.7929 32.3505C34.7929 34.9862 32.6483 37.1308 30.0126 37.1308C26.7096 37.1308 24.3878 33.8357 25.5175 30.7238L25.6149 30.4555H25.3295H16.3386H16.0532L16.1506 30.7238C17.2818 33.8396 14.955 37.1308 11.6556 37.1308C7.68101 37.1308 5.44798 32.5297 7.8913 29.4095L8.01391 29.2529L7.85802 29.1294C6.48928 28.0452 5.69641 26.4494 5.56713 24.9866L5.5671 24.9864L3.94527 6.91682L3.70496 4.23955L3.68144 3.97754L3.67843 3.94399L3.6779 3.93802L3.67784 3.93744L3.6778 3.93696L3.67777 3.93665C3.67775 3.93663 3.67773 3.93661 3.67771 3.9366L3.66138 3.75464H3.47853H1.64273C0.845932 3.75464 0.2 3.10871 0.2 2.31191C0.2 1.51511 0.845932 0.869174 1.64273 0.869174H4.98038C5.72715 0.869174 6.35056 1.43912 6.41734 2.18296L6.88223 7.36203ZM33.7295 20.9681L33.8761 20.9595L33.9117 20.817L36.4466 10.678L36.5088 10.4295H36.2526H7.37634H7.15758L7.17714 10.6474L8.22067 22.273L8.23801 22.4662L8.4316 22.4548L33.7295 20.9681ZM9.76075 32.3505C9.76075 33.3955 10.6106 34.2454 11.6556 34.2454C12.7006 34.2454 13.5505 33.3955 13.5505 32.3505C13.5505 31.3054 12.7006 30.4555 11.6556 30.4555C10.6106 30.4555 9.76075 31.3054 9.76075 32.3505ZM28.1176 32.3505C28.1176 33.3955 28.9675 34.2454 30.0125 34.2454C31.0575 34.2454 31.9074 33.3955 31.9074 32.3505C31.9074 31.3054 31.0575 30.4555 30.0125 30.4555C28.9675 30.4555 28.1176 31.3054 28.1176 32.3505Z" fill="#041655" stroke="#F9F9F9" stroke-width="0.4"/>
</svg>
