<svg width="40" height="38" viewBox="0 0 40 38" fill="none" xmlns="http://www.w3.org/2000/svg">
<path d="M17.9981 25.1227C18.3029 24.8173 18.3029 24.3226 17.9981 24.0171C17.6926 23.7125 17.1982 23.7125 16.8927 24.0171C16.5878 24.3226 16.5878 24.8173 16.8927 25.1227C17.1982 25.4273 17.6926 25.4273 17.9981 25.1227V25.1227Z" fill="#041655"/>
<path d="M18.2812 6.73468V8.29718C18.2812 10.8869 20.379 12.9847 22.9687 12.9847C25.5536 12.9847 27.6565 10.882 27.6565 8.29718V6.73468C28.0881 6.73468 28.4378 6.38495 28.4378 5.95343C28.4378 5.52191 28.0881 5.17218 27.6565 5.17218H26.094C25.6625 5.17218 25.3128 5.52191 25.3128 5.95343C25.3128 6.38495 25.6625 6.73468 26.094 6.73468V8.29718C26.094 10.0202 24.6921 11.4222 22.9687 11.4222C21.243 11.4222 19.8437 10.0236 19.8437 8.29718V6.73468C20.2753 6.73468 20.625 6.38495 20.625 5.95343C20.625 5.52191 20.2753 5.17218 19.8437 5.17218H18.2812C17.8497 5.17218 17.5 5.52191 17.5 5.95343C17.5 6.38495 17.8497 6.73468 18.2812 6.73468V6.73468Z" fill="#041655"/>
<path d="M9.07958 37.3548C9.23217 37.5071 9.43175 37.5831 9.63164 37.5831C9.83153 37.5831 10.0314 37.5068 10.184 37.3545L12.583 34.9555C13.3646 34.1746 13.7408 33.1049 13.6322 32.024L14.4925 31.1933C15.1752 30.5353 16.0727 30.1728 17.0193 30.1728H27.3056C29.1482 30.1728 30.8899 29.4651 32.2094 28.18C32.229 28.1611 32.2473 28.1412 32.2647 28.1202L39.2636 19.7156C40.3756 18.3997 40.2093 16.424 38.8922 15.3107C37.5836 14.2078 35.6225 14.3665 34.5071 15.6605L33.7512 16.4423V1.1875C33.7512 0.755981 33.4011 0.40625 32.9699 0.40625H12.8909C12.4597 0.40625 12.1097 0.755981 12.1097 1.1875V18.6915C9.08416 19.3265 6.68456 21.2046 5.39215 23.95C4.37286 23.8972 3.3789 24.2719 2.64129 25.0104L0.230103 27.4097C0.0830086 27.5562 0.000306017 27.7552 8.41594e-07 27.9627C-0.000304334 28.1705 0.0823982 28.3695 0.229188 28.5163L9.07958 37.3548ZM32.1887 1.96875V18.0579L29.9276 20.3956C29.3457 19.6805 28.4588 19.235 27.5009 19.235H18.4427C18.3926 19.235 18.3383 19.2234 18.2837 19.2014C17.0666 18.7052 15.7779 18.4537 14.4537 18.4537C14.1922 18.4537 13.9316 18.4632 13.6725 18.4803V1.96875H32.1887ZM13.0029 20.1191C14.5834 19.8905 16.1639 20.0248 17.6968 20.6495C17.9404 20.7477 18.1915 20.7978 18.4427 20.7978H27.5009C28.3481 20.7978 29.0634 21.4887 29.0634 22.3603C29.0634 23.2218 28.3624 23.9228 27.5009 23.9228H20.7037C20.2725 23.9228 19.9225 24.2725 19.9225 24.704C19.9225 25.1356 20.2725 25.4853 20.7037 25.4853H27.5009C29.2242 25.4853 30.6259 24.0833 30.6259 22.3603C30.6259 22.2224 30.6158 22.0853 30.5981 21.9501C30.7611 21.7832 35.4834 16.8992 35.6469 16.7298C35.6588 16.7173 35.6707 16.7045 35.6817 16.6913C36.2384 16.034 37.2268 15.951 37.8845 16.5052C38.5427 17.0615 38.6261 18.0494 38.0664 18.7116L31.091 27.0881C30.0683 28.0701 28.7256 28.6103 27.3056 28.6103H17.0193C15.6659 28.6103 14.3835 29.1279 13.4076 30.0687L13.063 30.4014C12.9251 30.1893 12.7646 29.9912 12.5833 29.8102L7.78472 25.0117C7.52837 24.7553 7.23754 24.5423 6.92291 24.3741C8.11645 22.02 10.2484 20.5195 13.0029 20.1191V20.1191ZM3.74511 26.1164C4.56604 25.2943 5.87799 25.3144 6.67968 26.1167L11.4789 30.9156C12.2833 31.7185 12.2977 33.032 11.4786 33.8502L9.63103 35.6974L1.88782 27.9645L3.74511 26.1164Z" fill="#041655"/>
</svg>
