<svg width="40" height="36" viewBox="0 0 40 36" fill="none" xmlns="http://www.w3.org/2000/svg">
<path d="M38.8354 5.10968C38.833 5.10968 38.8306 5.10938 38.8281 5.10938H28.2031V3.9375C28.2031 1.99902 26.626 0.421875 24.6875 0.421875H15.3125C13.374 0.421875 11.7969 1.99902 11.7969 3.9375V5.10938H1.17188C0.519409 5.10938 0 5.64404 0 6.28125V32.0625C0 34.001 1.57715 35.5781 3.51562 35.5781H36.4844C38.4229 35.5781 40 34.001 40 32.0625V6.30597C40 6.30444 40 6.30292 40 6.30139C39.9551 5.53174 39.4818 5.11395 38.8354 5.10968ZM14.1406 3.9375C14.1406 3.29144 14.6664 2.76562 15.3125 2.76562H24.6875C25.3336 2.76562 25.8594 3.29144 25.8594 3.9375V5.10938H14.1406V3.9375ZM37.2021 7.45312L33.5629 18.3705C33.4033 18.8499 32.9565 19.1719 32.4515 19.1719H25.8594V18C25.8594 17.3527 25.3348 16.8281 24.6875 16.8281H15.3125C14.6652 16.8281 14.1406 17.3527 14.1406 18V19.1719H7.54852C7.04346 19.1719 6.59668 18.8499 6.43707 18.3705L2.79785 7.45312H37.2021ZM23.5156 19.1719V21.5156H16.4844V19.1719H23.5156ZM37.6562 32.0625C37.6562 32.7086 37.1304 33.2344 36.4844 33.2344H3.51562C2.86957 33.2344 2.34375 32.7086 2.34375 32.0625V13.5026L4.21356 19.1118C4.69269 20.5497 6.03302 21.5156 7.54852 21.5156H14.1406V22.6875C14.1406 23.3348 14.6652 23.8594 15.3125 23.8594H24.6875C25.3348 23.8594 25.8594 23.3348 25.8594 22.6875V21.5156H32.4515C33.967 21.5156 35.3073 20.5497 35.7864 19.1118L37.6562 13.5026V32.0625Z" fill="#041655"/>
</svg>
