<svg width="36" height="40" viewBox="0 0 36 40" fill="none" xmlns="http://www.w3.org/2000/svg">
<path d="M18.9066 15.9V17.9111C18.9066 18.5498 19.0345 19.0857 19.2859 19.5032C19.6332 20.0793 20.2033 20.4095 20.8506 20.4095C21.4847 20.4095 22.1149 20.1007 22.7237 19.4922L29.3662 12.8497C30.8243 11.3913 30.8243 9.01825 29.3659 7.55981L22.7237 0.917358C22.1149 0.308533 21.4847 0 20.8506 0C19.8832 0 18.9066 0.772705 18.9066 2.49847V4.32495C9.47607 4.8819 1.66906 12.1191 0.508784 21.5945C0.443782 22.1237 0.744685 22.6303 1.2406 22.8265C1.38098 22.8821 1.52716 22.9089 1.6715 22.9089C2.0371 22.9089 2.39172 22.7377 2.61755 22.4292C5.72973 18.1769 10.7267 15.6381 15.9842 15.6381C16.9587 15.6381 17.938 15.726 18.9066 15.9ZM3.89715 17.6709C6.44781 11.1566 12.7961 6.63422 20.0785 6.63422C20.7258 6.63422 21.2504 6.10962 21.2504 5.46234V2.75879L27.7088 9.21692C28.2532 9.76166 28.2532 10.6479 27.7088 11.1926L21.2504 17.6508V14.9469C21.2504 14.4037 20.8771 13.9316 20.3483 13.8065C18.9121 13.4668 17.4436 13.2944 15.9842 13.2944C12.963 13.2944 9.95764 14.0256 7.29284 15.4092C6.08526 16.0361 4.94512 16.7972 3.89715 17.6709Z" fill="#041655"/>
<path d="M34.7387 17.1735C34.2428 16.9772 33.6767 17.1408 33.3617 17.5711C30.2495 21.8231 25.2529 24.3619 19.995 24.3619C19.0209 24.3619 18.0416 24.274 17.0726 24.1V22.0889C17.0726 20.3632 16.0964 19.5905 15.1287 19.5905C14.4945 19.5905 13.8643 19.8993 13.2558 20.5081L6.61336 27.1503C5.15492 28.6087 5.15492 30.9817 6.61336 32.4405L13.2558 39.0826C13.8643 39.6915 14.4945 40 15.1287 40C16.0961 40 17.0726 39.2273 17.0726 37.5015V35.675C26.5035 35.1181 34.3102 27.8809 35.4705 18.4058C35.5355 17.8763 35.2346 17.3697 34.7387 17.1735ZM15.9008 33.3658C15.2535 33.3658 14.7289 33.8904 14.7289 34.5377V37.2412L8.27077 30.7834C7.72603 30.2383 7.72603 29.3521 8.27046 28.8077L14.7289 22.3492V25.0531C14.7289 25.5966 15.1024 26.0687 15.6313 26.1938C17.0678 26.5332 18.536 26.7056 19.995 26.7056C23.0166 26.7056 26.0219 25.9744 28.6864 24.5911C29.894 23.9639 31.0341 23.2031 32.0821 22.3294C29.5314 28.8434 23.1832 33.3658 15.9008 33.3658Z" fill="#041655"/>
</svg>
