<svg width="40" height="40" viewBox="0 0 40 40" fill="none" xmlns="http://www.w3.org/2000/svg">
<path d="M3.90625 35.2119C3.4195 35.2119 3.025 35.6064 3.025 36.0931V36.0938C3.025 36.5802 3.41953 36.9747 3.90625 36.9747C4.39305 36.9747 4.7875 36.5798 4.7875 36.0931C4.7875 35.6064 4.393 35.2119 3.90625 35.2119Z" fill="#041655" stroke="#041655" stroke-width="0.2"/>
<path d="M32.0867 13.1851V13.2812C32.0867 13.768 32.4812 14.1625 32.968 14.1625H39.218C39.7047 14.1625 40.0992 13.768 40.0992 13.2812V0.78125C40.0992 0.294503 39.7047 -0.1 39.218 -0.1H32.968C32.4812 -0.1 32.0867 0.294503 32.0867 0.78125V1.49606L31.1448 1.49027H31.1442H31.1442H31.1442H31.1442H31.1442H31.1441H31.1441H31.1441H31.1441H31.1441H31.144H31.144H31.144H31.144H31.144H31.144H31.1439H31.1439H31.1439H31.1439H31.1439H31.1438H31.1438H31.1438H31.1438H31.1438H31.1438H31.1437H31.1437H31.1437H31.1437H31.1437H31.1436H31.1436H31.1436H31.1436H31.1436H31.1435H31.1435H31.1435H31.1435H31.1435H31.1435H31.1434H31.1434H31.1434H31.1434H31.1434H31.1433H31.1433H31.1433H31.1433H31.1433H31.1432H31.1432H31.1432H31.1432H31.1432H31.1431H31.1431H31.1431H31.1431H31.1431H31.1431H31.143H31.143H31.143H31.143H31.143H31.1429H31.1429H31.1429H31.1429H31.1429H31.1428H31.1428H31.1428H31.1428H31.1428H31.1427H31.1427H31.1427H31.1427H31.1427H31.1426H31.1426H31.1426H31.1426H31.1426H31.1425H31.1425H31.1425H31.1425H31.1425H31.1425H31.1424H31.1424H31.1424H31.1424H31.1424H31.1423H31.1423H31.1423H31.1423H31.1423H31.1422H31.1422H31.1422H31.1422H31.1422H31.1421H31.1421H31.1421H31.1421H31.1421H31.142H31.142H31.142H31.142H31.142H31.1419H31.1419H31.1419H31.1419H31.1419H31.1418H31.1418H31.1418H31.1418H31.1418H31.1417H31.1417H31.1417H31.1417H31.1417H31.1416H31.1416H31.1416H31.1416H31.1416H31.1415H31.1415H31.1415H31.1415H31.1415H31.1415H31.1414H31.1414H31.1414H31.1414H31.1414H31.1413H31.1413H31.1413H31.1413H31.1413H31.1412H31.1412H31.1412H31.1412H31.1412H31.1411H31.1411H31.1411H31.1411H31.1411H31.141H31.141H31.141H31.141H31.141H31.1409H31.1409H31.1409H31.1409H31.1409H31.1408H31.1408H31.1408H31.1408H31.1408H31.1407H31.1407H31.1407H31.1407H31.1407H31.1407H31.1406H31.1406H31.1406H31.1406H31.1406H31.1405H31.1405H31.1405H31.1405H31.1405H31.1404H31.1404H31.1404H31.1404H31.1404H31.1403H31.1403H31.1403H31.1403H31.1403H31.1402H31.1402H31.1402H31.1402H31.1402H31.1402H31.1401H31.1401H31.1401H31.1401H31.1401H31.14H31.14H31.14H31.14H31.14H31.1399H31.1399H31.1399H31.1399H31.1399H31.1399H31.1398H31.1398H31.1398H31.1398H31.1398H31.1397H31.1397H31.1397H31.1397H31.1397H31.1397H31.1396H31.1396H31.1396H31.1396H31.1396H31.1395H31.1395H31.1395H31.1395H31.1395H31.1395H31.1394H31.1394H31.1394H31.1394H31.1394H31.1393C30.6554 1.49027 30.2612 1.88094 30.2581 2.36569C30.255 2.85242 30.6471 3.24967 31.1338 3.25277L31.1339 3.25277L32.0867 3.25857V11.2091C30.1083 12.4267 28.3233 11.7149 26.3833 10.9335L26.3724 10.9291C25.0972 10.4155 23.7475 9.87181 22.3955 10.0415L22.408 10.1407L22.3955 10.0415C21.9818 10.0934 20.8761 10.2539 19.7001 10.4245L19.6525 10.4314L19.5803 10.4419C18.4705 10.6029 17.3421 10.7666 16.9493 10.816C16.7715 10.8382 16.5939 10.7889 16.4484 10.6759L32.0867 13.1851ZM32.0867 13.1851C31.327 13.4997 30.5861 13.6254 29.8714 13.6254C28.3504 13.6257 26.9477 13.0608 25.734 12.5721L25.7248 12.5683L25.7248 12.5683C25.1487 12.3363 24.5946 12.1132 24.0697 11.9622C23.5447 11.8111 23.0574 11.7346 22.6151 11.7902L22.6027 11.691L32.0867 13.1851ZM17.0417 9.35096C16.5599 9.57459 16.3457 9.77016 16.2515 9.91385C16.1627 10.0492 16.1748 10.1465 16.1822 10.2062L16.1824 10.2084L16.0832 10.2206L16.1824 10.2084C16.2054 10.3942 16.2997 10.5598 16.4482 10.6758L17.0417 9.35096ZM17.0417 9.35096C19.1101 8.39185 21.3131 7.57134 23.0849 7.09981L23.085 7.0998C23.5551 6.97451 23.835 6.49192 23.7097 6.02138C23.5848 5.55102 23.1021 5.27159 22.6316 5.39651L22.6316 5.39653C20.7627 5.89392 18.4552 6.75277 16.3002 7.7523C15.558 8.09648 15.0868 8.49933 14.8011 8.91412L7.0051 11.04C6.60917 11.1394 6.32236 11.1072 6.12487 11.0162C5.92811 10.9255 5.81045 10.7723 5.75788 10.6091C5.70573 10.4467 5.71127 10.2614 5.794 10.0913C5.87622 9.92226 6.03842 9.76068 6.31282 9.65227C6.92287 9.41992 8.36514 8.7853 10.1872 7.98354L10.2452 7.95805L10.2452 7.95805L10.2782 7.94353C12.7271 6.86584 15.7631 5.52979 18.1859 4.54701L18.1483 4.45435L18.1859 4.54701C19.6323 3.96024 20.5688 3.62568 21.5114 3.43799C22.4537 3.25039 23.4065 3.20868 24.8869 3.21401H24.8872H24.8897C25.3751 3.21401 25.7692 2.82122 25.7709 2.33556L25.7709 2.33549C25.7723 1.84879 25.3789 1.45292 24.8921 1.45151C24.8921 1.45151 24.8921 1.45151 24.8921 1.45151L24.8918 1.55151M17.0417 9.35096L9.59688 6.42681C12.0566 5.34442 15.1116 4.00013 17.5612 3.00659M24.8918 1.55151C21.7314 1.54083 20.6349 1.75964 17.5612 3.00659M24.8918 1.55151C25.3233 1.55273 25.6721 1.90369 25.6709 2.33521L24.8918 1.55151ZM17.5612 3.00659L17.5236 2.91392M17.5612 3.00659L17.5236 2.91393C17.5236 2.91393 17.5236 2.91392 17.5236 2.91392M17.5236 2.91392C15.0726 3.90801 12.0167 5.25276 9.55744 6.33491L9.53536 6.34463L9.53535 6.34463C7.77047 7.12152 6.25114 7.7901 5.68115 8.00681M17.5236 2.91392L5.68115 8.00681M5.68115 8.00681L5.68114 8.00681L5.68112 8.00682L5.68111 8.00682L5.68109 8.00683L5.68108 8.00684L5.68106 8.00684L5.68105 8.00685L5.68104 8.00685L5.68102 8.00686L5.68101 8.00686L5.68099 8.00687L5.68098 8.00687L5.68096 8.00688L5.68095 8.00688L5.68094 8.00689L5.68092 8.0069L5.68091 8.0069L5.68089 8.00691L5.68088 8.00691L5.68086 8.00692L5.68085 8.00692L5.68084 8.00693L5.68082 8.00693L5.68081 8.00694L5.68079 8.00694L5.68078 8.00695L5.68076 8.00695L5.68075 8.00696L5.68073 8.00696L5.68072 8.00697L5.68071 8.00698L5.68069 8.00698L5.68068 8.00699L5.68066 8.00699L5.68065 8.007L5.68063 8.007L5.68062 8.00701L5.68061 8.00701L5.68059 8.00702L5.68058 8.00702L5.68056 8.00703L5.68055 8.00703L5.68053 8.00704L5.68052 8.00704L5.68051 8.00705L5.68049 8.00706L5.68048 8.00706L5.68046 8.00707L5.68045 8.00707L5.68043 8.00708L5.68042 8.00708L5.68041 8.00709L5.68039 8.00709L5.68038 8.0071L5.68036 8.0071L5.68035 8.00711L5.68033 8.00711L5.68032 8.00712L5.68031 8.00712L5.68029 8.00713L5.68028 8.00714L5.68026 8.00714L5.68025 8.00715L5.68023 8.00715L5.68022 8.00716L5.68021 8.00716L5.68019 8.00717L5.68018 8.00717L5.68016 8.00718L5.68015 8.00718L5.68013 8.00719L5.68012 8.0072L5.68011 8.0072L5.68009 8.00721L5.68008 8.00721L5.68006 8.00722L5.68005 8.00722L5.68003 8.00723L5.68002 8.00723L5.68001 8.00724L5.67999 8.00724L5.67998 8.00725L5.67996 8.00725L5.67995 8.00726L5.67993 8.00727L5.67992 8.00727L5.67991 8.00728L5.67989 8.00728L5.67988 8.00729L5.67986 8.00729L5.67985 8.0073L5.67983 8.0073L5.67982 8.00731L5.67981 8.00731L5.67979 8.00732L5.67978 8.00732L5.67976 8.00733L5.67975 8.00733L5.67973 8.00734L5.67972 8.00735L5.6797 8.00735L5.67969 8.00736L5.67968 8.00736L5.67966 8.00737L5.67965 8.00737L5.67963 8.00738L5.67962 8.00738L5.6796 8.00739L5.67959 8.00739L5.67958 8.0074L5.67956 8.0074L5.67955 8.00741L5.67953 8.00741L5.67952 8.00742L5.6795 8.00743L5.67949 8.00743L5.67948 8.00744L5.67946 8.00744L5.67945 8.00745L5.67943 8.00745L5.67942 8.00746L5.6794 8.00746L5.67939 8.00747L5.67938 8.00747L5.67936 8.00748L5.67935 8.00748L5.67933 8.00749L5.67932 8.0075L5.6793 8.0075L5.67929 8.00751L5.67928 8.00751L5.67926 8.00752L5.67925 8.00752L5.67923 8.00753L5.67922 8.00753L5.6792 8.00754L5.67919 8.00754L5.67918 8.00755L5.67916 8.00755L5.67915 8.00756L5.67913 8.00757L5.67912 8.00757L5.6791 8.00758L5.67909 8.00758L5.67908 8.00759L5.67906 8.00759L5.67905 8.0076L5.67903 8.0076L5.67902 8.00761L5.679 8.00761L5.67899 8.00762L5.67898 8.00762L5.67896 8.00763L5.67895 8.00764L5.67893 8.00764L5.67892 8.00765L5.6789 8.00765L5.67889 8.00766L5.67888 8.00766L5.67886 8.00767L5.67885 8.00767L5.67883 8.00768L5.67882 8.00768L5.6788 8.00769L5.67879 8.00769L5.67878 8.0077L5.67876 8.0077L5.67875 8.00771L5.67873 8.00772L5.67872 8.00772L5.6787 8.00773L5.67869 8.00773L5.67867 8.00774L5.67866 8.00774L5.67865 8.00775L5.67863 8.00775L5.67862 8.00776L5.6786 8.00776L5.67859 8.00777L5.67857 8.00777L5.67856 8.00778L5.67855 8.00778L5.67853 8.00779L5.67852 8.0078L5.6785 8.0078L5.67849 8.00781L5.67847 8.00781L5.67846 8.00782L5.67845 8.00782L5.67843 8.00783L5.67842 8.00783L5.6784 8.00784L5.67839 8.00784L5.67837 8.00785L5.67836 8.00785L5.67835 8.00786L5.67833 8.00787L5.67832 8.00787L5.6783 8.00788L5.67829 8.00788L5.67827 8.00789L5.67826 8.00789L5.67825 8.0079L5.67823 8.0079L5.67822 8.00791L5.6782 8.00791L5.67819 8.00792L5.67817 8.00793L5.67816 8.00793L5.67815 8.00794L5.67813 8.00794L5.67812 8.00795L5.6781 8.00795L5.67809 8.00796L5.67807 8.00796L5.67806 8.00797L5.67805 8.00797L5.67803 8.00798L5.67802 8.00798L5.678 8.00799L5.67799 8.00799L5.67797 8.008L5.67796 8.00801L5.67795 8.00801L5.67793 8.00802L5.67792 8.00802L5.6779 8.00803L5.67789 8.00803L5.67787 8.00804L5.67786 8.00804L5.67785 8.00805L5.67783 8.00805L5.67782 8.00806L5.6778 8.00806L5.67779 8.00807L5.67777 8.00807L5.67776 8.00808L5.67775 8.00809L5.67773 8.00809L5.67772 8.0081L5.6777 8.0081L5.67769 8.00811L5.67767 8.00811L5.67766 8.00812L5.67764 8.00812L5.67763 8.00813L5.67762 8.00813L5.6776 8.00814L5.67759 8.00814L5.67757 8.00815L5.67756 8.00815L5.67754 8.00816L5.67753 8.00817L5.67752 8.00817L5.6775 8.00818L5.67749 8.00818L5.67747 8.00819L5.67746 8.00819L5.67744 8.0082L5.67743 8.0082L5.67742 8.00821L5.6774 8.00821L5.67739 8.00822L5.67737 8.00823L5.67736 8.00823L5.67734 8.00824L5.67733 8.00824L5.67732 8.00825L5.6773 8.00825L5.67729 8.00826L5.67727 8.00826L5.67726 8.00827L5.67724 8.00827L5.67723 8.00828L5.67722 8.00828L5.6772 8.00829L5.67719 8.0083L5.67717 8.0083L5.67716 8.00831L5.67714 8.00831L5.67713 8.00832L5.67712 8.00832L5.6771 8.00833L5.67709 8.00833L5.67707 8.00834L5.67706 8.00834L5.67704 8.00835L5.67703 8.00835L5.67702 8.00836L5.677 8.00836L5.67699 8.00837L5.67697 8.00838L5.67696 8.00838L5.67694 8.00839L5.67693 8.00839L5.67692 8.0084L5.6769 8.0084L5.67689 8.00841L5.67687 8.00841L5.67686 8.00842L5.67684 8.00842L5.67683 8.00843L5.67682 8.00843L5.6768 8.00844L5.67679 8.00844L5.67677 8.00845L5.67676 8.00846L5.67674 8.00846L5.67673 8.00847L5.67672 8.00847L5.6767 8.00848L5.67669 8.00848L5.67667 8.00849L5.67666 8.00849L5.67664 8.0085L5.67663 8.0085L5.67661 8.00851L5.6766 8.00851L5.67659 8.00852L5.67657 8.00853L5.67656 8.00853L5.67654 8.00854L5.67653 8.00854L5.67651 8.00855L5.6765 8.00855L5.67649 8.00856L5.67647 8.00856L5.67646 8.00857L5.67644 8.00857L5.67643 8.00858L5.67641 8.00858L5.6764 8.00859L5.67639 8.0086L5.67637 8.0086L5.67636 8.00861L5.67634 8.00861L5.67633 8.00862L5.67631 8.00862L5.6763 8.00863L5.67629 8.00863L5.67627 8.00864L5.67626 8.00864L5.67624 8.00865L5.67623 8.00865L5.67621 8.00866L5.6762 8.00867L5.67619 8.00867L5.67617 8.00868L5.67616 8.00868L5.67614 8.00869L5.67613 8.00869L5.67611 8.0087L5.6761 8.0087L5.67609 8.00871L5.67607 8.00871L5.67606 8.00872L5.67604 8.00872L5.67603 8.00873L5.67601 8.00873L5.676 8.00874L5.67599 8.00875L5.67597 8.00875L5.67596 8.00876L5.67594 8.00876L5.67593 8.00877L5.67591 8.00877L5.6759 8.00878L5.67589 8.00878L5.67587 8.00879L5.67586 8.00879L5.67584 8.0088L5.67583 8.0088L5.67581 8.00881L5.6758 8.00881L5.67579 8.00882L5.67577 8.00883L5.67576 8.00883L5.67574 8.00884L5.67573 8.00884L5.67571 8.00885L5.6757 8.00885L5.67569 8.00886L5.67567 8.00886L5.67566 8.00887L5.67564 8.00887L5.67563 8.00888L5.67561 8.00888L5.6756 8.00889L5.67559 8.0089L5.67557 8.0089L5.67556 8.00891L5.67554 8.00891L5.67553 8.00892L5.67551 8.00892L5.6755 8.00893L5.67548 8.00893L5.67547 8.00894L5.67546 8.00894L5.67544 8.00895L5.67543 8.00896L5.67541 8.00896L5.6754 8.00897L5.67538 8.00897L5.67537 8.00898L5.67536 8.00898L5.67534 8.00899L5.67533 8.00899L5.67531 8.009L5.6753 8.009L5.67528 8.00901L5.67527 8.00901L5.67526 8.00902L5.67524 8.00902L5.67523 8.00903L5.67521 8.00904L5.6752 8.00904L5.67518 8.00905L5.67517 8.00905L5.67516 8.00906L5.67514 8.00906L5.67513 8.00907L5.67511 8.00907L5.6751 8.00908L5.67508 8.00908L5.67507 8.00909L5.67506 8.00909L5.67504 8.0091L5.67503 8.0091L5.67501 8.00911L5.675 8.00912L5.67498 8.00912L5.67497 8.00913L5.67496 8.00913L5.67494 8.00914L5.67493 8.00914L5.67491 8.00915L5.6749 8.00915L5.67488 8.00916L5.67487 8.00916L5.67486 8.00917L5.67484 8.00917L5.67483 8.00918L5.67481 8.00918L5.6748 8.00919L5.67478 8.0092L5.67477 8.0092L5.67476 8.00921L5.67474 8.00921L5.67473 8.00922L5.67471 8.00922L5.6747 8.00923L5.67468 8.00923L5.67467 8.00924L5.67466 8.00924L5.67464 8.00925L5.67463 8.00926L5.67461 8.00926L5.6746 8.00927L5.67458 8.00927L5.67457 8.00928L5.67456 8.00928L5.67454 8.00929L5.67453 8.00929L5.67451 8.0093L5.6745 8.0093L5.67448 8.00931L5.67447 8.00931L5.67445 8.00932L5.67444 8.00933L5.67443 8.00933L5.67441 8.00934L5.6744 8.00934L5.67438 8.00935L5.67437 8.00935L5.67435 8.00936L5.67434 8.00936L5.67433 8.00937L5.67431 8.00937L5.6743 8.00938L5.67428 8.00938L5.67427 8.00939L5.67425 8.00939L5.67425 8.00938L5.67285 8.00993C4.15986 8.60336 3.7229 10.0379 4.08005 11.1485C4.43324 12.2473 5.64495 13.2039 7.4457 12.7468L7.44571 12.7468L7.44686 12.7465L7.45285 12.7449C7.45539 12.7443 7.4589 12.7433 7.46295 12.7421M5.68115 8.00681L7.46295 12.7421M7.46295 12.7421L14.5148 10.8192C14.6589 11.3113 14.9528 11.7452 15.3656 12.0665C15.3656 12.0665 15.3656 12.0665 15.3657 12.0665L15.4271 11.9876M7.46295 12.7421L19.7131 12.1025C18.5888 12.2655 17.5531 12.4156 17.1565 12.4655C16.5373 12.5433 15.923 12.3737 15.4271 11.9876M15.4271 11.9876C15.0312 11.6795 14.7497 11.2641 14.6113 10.7929L15.4271 11.9876ZM38.3367 12.4H33.8492V2.38861V2.388V2.38799V2.38797V2.38796V2.38794V2.38793V2.38791V2.3879V2.38788V2.38787V2.38785V2.38784V2.38782V2.38781V2.38779V2.38778V2.38776V2.38775V2.38773V2.38772V2.3877V2.38769V2.38767V2.38766V2.38764V2.38762V2.38761V2.38759V2.38757V2.38756V2.38754V2.38753V2.38751V2.3875V2.38748V2.38747V2.38745V2.38744V2.38743V2.38741V2.3874V2.38738V2.38737V2.38735V2.38733V2.38732V2.3873V2.38728V2.38727V2.38725V2.38724V2.38722V2.38721V2.38719V2.38718V2.38716V2.38715V2.38713V2.38712V2.3871V2.38709V1.6625H38.3367V12.4Z" fill="#041655" stroke="#041655" stroke-width="0.2"/>
<path d="M36.0938 4.78811C36.5805 4.78811 36.975 4.39361 36.975 3.90686V3.90625C36.975 3.41978 36.5805 3.02531 36.0938 3.02531C35.607 3.02531 35.2125 3.42016 35.2125 3.90686C35.2125 4.39361 35.607 4.78811 36.0938 4.78811Z" fill="#041655" stroke="#041655" stroke-width="0.2"/>
<path d="M14.5312 25.5688C16.4007 25.5688 18.0568 24.6418 19.067 23.225H21.9016C22.1353 23.225 22.3594 23.132 22.5246 22.9668L23.829 21.6625H24.6616L25.966 22.9668C26.1312 23.132 26.3553 23.225 26.5891 23.225H27.8125C28.0463 23.225 28.2704 23.132 28.4356 22.9668L30.7793 20.6231C30.9445 20.4579 31.0375 20.2338 31.0375 20V17.6562C31.0375 17.1698 30.643 16.775 30.1562 16.775H19.0673C18.0568 15.3582 16.401 14.4312 14.5312 14.4312C11.4606 14.4312 8.9625 16.9293 8.9625 20C8.9625 23.0707 11.4606 25.5688 14.5312 25.5688ZM29.275 18.5375V19.6351L27.4476 21.4625H26.9543L25.6496 20.1582C25.4844 19.993 25.2603 19.9 25.0266 19.9H23.4641C23.2303 19.9 23.0062 19.993 22.841 20.1582L21.5366 21.4625H19.904C20.0312 20.9963 20.1 20.5061 20.1 20C20.1 19.4939 20.0312 19.0037 19.904 18.5375H29.275ZM14.5312 16.1938C16.63 16.1938 18.3375 17.9013 18.3375 20C18.3375 22.0987 16.63 23.8062 14.5312 23.8062C12.4325 23.8062 10.725 22.0987 10.725 20C10.725 17.9013 12.4325 16.1938 14.5312 16.1938Z" fill="#041655" stroke="#041655" stroke-width="0.2"/>
<path d="M12.9688 20.8813C13.4555 20.8813 13.85 20.4864 13.85 19.9997C13.85 19.5129 13.4555 19.1184 12.9688 19.1184C12.482 19.1184 12.0875 19.5129 12.0875 19.9997V20.0003C12.0875 20.4871 12.4821 20.8813 12.9688 20.8813Z" fill="#041655" stroke="#041655" stroke-width="0.2"/>
<path d="M32.5524 27.2535L32.5535 27.2532C34.3543 26.7964 35.566 27.753 35.9192 28.8515C36.2763 29.9621 35.8394 31.3966 34.3264 31.9901L34.3215 31.992L34.3215 31.9918L34.3178 31.9932C33.7481 32.2099 32.2287 32.8785 30.4636 33.6554C28.0009 34.7392 24.9336 36.089 22.4756 37.0861C20.9688 37.6975 19.9306 38.0643 18.8893 38.2773C17.8475 38.4904 16.807 38.5488 15.2963 38.5488C15.2342 38.5488 15.1711 38.5488 15.1071 38.5485L32.5524 27.2535ZM32.5524 27.2535L32.5464 27.2551C32.5438 27.2557 32.5403 27.2567 32.5363 27.2579L25.4845 29.1808C25.3403 28.6887 25.0464 28.2548 24.6336 27.9335C24.1169 27.5312 23.476 27.3541 22.8302 27.4353L22.8427 27.5345L22.8302 27.4353C22.4326 27.4853 21.3964 27.6355 20.2732 27.7983L20.0937 27.8243L20.0937 27.8243M32.5524 27.2535L20.0937 27.8243M20.0937 27.8243C18.958 27.9892 17.7863 28.1593 17.3841 28.2098C16.942 28.2652 16.4546 28.1888 15.9296 28.0377C15.4047 27.8867 14.8505 27.6637 14.2744 27.4317L14.2744 27.4317M20.0937 27.8243L14.2744 27.4317M14.2744 27.4317L14.2634 27.4272C12.4814 26.7098 10.2933 25.8288 7.9125 26.814M14.2744 27.4317L7.9125 26.814M7.9125 26.814V26.7191C7.9125 26.2323 7.518 25.8378 7.03125 25.8378H0.78125C0.294503 25.8378 -0.1 26.2323 -0.1 26.7191V39.2188C-0.1 39.7055 0.294503 40.1 0.78125 40.1H7.03125C7.518 40.1 7.9125 39.7055 7.9125 39.2188V38.5039L8.85437 38.5097H8.85498H8.85986C9.34386 38.5097 9.73801 38.119 9.74111 37.634C9.74421 37.1476 9.35212 36.7503 8.86538 36.7472L8.86536 36.7472L7.9125 36.7414V28.7909C9.89087 27.5733 11.6759 28.2851 13.6159 29.0662L13.6252 29.0699C14.9012 29.584 16.2518 30.1283 17.6037 29.9582C18.0234 29.9056 19.153 29.7418 20.3467 29.5686L20.3467 29.5686C21.4793 29.404 22.6486 29.2345 23.0499 29.184C23.2278 29.1617 23.4055 29.2108 23.5509 29.3242L23.5509 29.3242C23.6998 29.4401 23.7938 29.6057 23.8168 29.7916L23.817 29.7938C23.8245 29.8536 23.8365 29.9509 23.7478 30.0861C23.6536 30.2297 23.4395 30.4252 22.9575 30.6487L22.9996 30.7394L22.9575 30.6487C20.8891 31.6081 18.6864 32.4287 16.9146 32.9002L16.9146 32.9002C16.4444 33.0255 16.1645 33.5081 16.2895 33.9783L16.2895 33.9784C16.4148 34.449 16.8978 34.7281 17.3676 34.6035L17.3676 34.6035C19.2365 34.1061 21.544 33.2472 23.6993 32.2477L23.6572 32.157L23.6993 32.2477C24.4413 31.9035 24.9124 31.5006 25.1984 31.0859L32.9932 28.9602C32.9935 28.9601 32.9938 28.96 32.9941 28.9599C33.3899 28.8604 33.6767 28.8926 33.8742 28.9837C34.0711 29.0744 34.1888 29.2278 34.2414 29.391C34.2935 29.5533 34.2879 29.7386 34.2053 29.9087C34.1231 30.0778 33.9609 30.2393 33.6867 30.3477C33.0705 30.5825 31.6035 31.2282 29.7537 32.0423C27.2994 33.1224 24.247 34.4658 21.8133 35.453C20.3669 36.0398 19.43 36.3745 18.4871 36.5622C17.5446 36.7499 16.5918 36.7916 15.1124 36.786H15.112H15.112H15.112H15.112H15.112H15.112H15.1119H15.1119H15.1119H15.1119H15.1119H15.1119H15.1119H15.1119H15.1119H15.1119H15.1119H15.1119H15.1119H15.1118H15.1118H15.1118H15.1118H15.1118H15.1118H15.1118H15.1118H15.1118H15.1118H15.1118H15.1118H15.1117H15.1117H15.1117H15.1117H15.1117H15.1117H15.1117H15.1117H15.1117H15.1117H15.1117H15.1117H15.1117H15.1116H15.1116H15.1116H15.1116H15.1116H15.1116H15.1116H15.1116H15.1116H15.1116H15.1116H15.1115H15.1115H15.1115H15.1115H15.1115H15.1115H15.1115H15.1115H15.1115H15.1115H15.1115H15.1115H15.1114H15.1114H15.1114H15.1114H15.1114H15.1114H15.1114H15.1114H15.1114H15.1114H15.1114H15.1113H15.1113H15.1113H15.1113H15.1113H15.1113H15.1113H15.1113H15.1113H15.1113H15.1113H15.1112H15.1112H15.1112H15.1112H15.1112H15.1112H15.1112H15.1112H15.1112H15.1112H15.1112H15.1111H15.1111H15.1111H15.1111H15.1111H15.1111H15.1111H15.1111H15.1111H15.1111H15.111H15.111H15.111H15.111H15.111H15.111H15.111H15.111H15.111H15.111H15.111H15.1109H15.1109H15.1109H15.1109H15.1109H15.1109H15.1109H15.1109H15.1109H15.1109H15.1108H15.1108H15.1108H15.1108H15.1108H15.1108H15.1108H15.1108H15.1108H15.1108H15.1107H15.1107H15.1107H15.1107H15.1107H15.1107H15.1107H15.1107H15.1107H15.1107H15.1106H15.1106H15.1106H15.1106H15.1106H15.1106H15.1106H15.1106H15.1106H15.1106H15.1105H15.1105H15.1105H15.1105H15.1105H15.1105H15.1105H15.1105H15.1105H15.1104H15.1104H15.1104H15.1104H15.1104H15.1104H15.1104H15.1104H15.1104H15.1104H15.1103H15.1103H15.1103H15.1103H15.1103H15.1103H15.1103H15.1103H15.1103H15.1103H15.1102H15.1102H15.1102H15.1102H15.1102H15.1102H15.1102H15.1102H15.1102H15.1101H15.1101H15.1101H15.1101H15.1101H15.1101H15.1101H15.1101H15.1101H15.1101H15.11H15.11H15.11H15.11H15.11H15.11H15.11H15.11H15.11H15.1099H15.1099H15.1099H15.1099H15.1099H15.1099H15.1099H15.1099H15.1099H15.1098H15.1098H15.1098H15.1098H15.1098H15.1098H15.1098H15.1098H15.1098H15.1098H15.1097H15.1097H15.1097H15.1097H15.1097H15.1097H15.1097H15.1097H15.1097H15.1096H15.1096H15.1096H15.1096H15.1096H15.1096H15.1096H15.1096H15.1096C14.6241 36.786 14.23 37.1788 14.2283 37.6644V37.6645C14.2269 38.1512 14.6203 38.547 15.1069 38.5485L7.9125 26.814ZM1.6625 38.3375V27.6H6.15V37.6123V37.6132V38.3375H1.6625Z" fill="#041655" stroke="#041655" stroke-width="0.2"/>
</svg>
