<svg width="40" height="40" viewBox="0 0 40 40" fill="none" xmlns="http://www.w3.org/2000/svg">
<path d="M25.2779 25.9136C31.4482 25.9136 36.4683 20.8939 36.4683 14.7232C36.4683 8.55286 31.4482 3.53281 25.2779 3.53281C19.1076 3.53281 14.0875 8.55286 14.0875 14.7232C14.0875 20.8939 19.1076 25.9136 25.2779 25.9136ZM25.2779 5.29531C30.4763 5.29531 34.7058 9.52483 34.7058 14.7232C34.7058 19.9216 30.4763 24.1511 25.2779 24.1511C20.0795 24.1511 15.85 19.9219 15.85 14.7232C15.85 9.52483 20.0795 5.29531 25.2779 5.29531Z" fill="#041655" stroke="#041655" stroke-width="0.2"/>
<path d="M14.7591 29.7688L14.7591 29.7687L14.4991 29.5089L16.7971 27.2109C19.1853 28.8306 22.0645 29.7783 25.1608 29.7783C33.3984 29.7783 40.1 23.0768 40.1 14.8392C40.1 6.60157 33.3984 -0.1 25.1608 -0.1C16.9232 -0.1 10.2217 6.60157 10.2217 14.8392C10.2217 17.9358 11.1694 20.8147 12.7891 23.2029L10.491 25.501L10.2312 25.2412C9.887 24.897 9.329 24.897 8.98477 25.2412L1.09598 33.13C0.324967 33.901 -0.1 34.9268 -0.1 36.0172C-0.1 37.1075 0.324973 38.133 1.09598 38.904C1.86698 39.675 2.89247 40.1 3.98285 40.1C5.07322 40.1 6.09902 39.675 6.87003 38.904L14.7591 31.0152C14.9244 30.8499 15.017 30.6258 15.017 30.3922C15.017 30.1585 14.9244 29.9341 14.7591 29.7688ZM2.34213 37.6579L2.27142 37.7286L2.34212 37.6579C1.43729 36.7533 1.43727 35.281 2.34213 34.3761L9.60788 27.1104L9.83866 27.3409V27.3412L9.86795 27.3705L12.8896 30.3922L5.62389 37.6578C5.18517 38.0963 4.60298 38.3375 3.98285 38.3375C3.36271 38.3375 2.78054 38.0963 2.34213 37.6579ZM25.1608 1.6625C32.4265 1.6625 38.3375 7.57354 38.3375 14.8392C38.3375 22.1048 32.4265 28.0158 25.1608 28.0158C17.8955 28.0158 11.9842 22.1048 11.9842 14.8392C11.9842 7.57354 17.8955 1.6625 25.1608 1.6625ZM13.2529 28.2625L11.7375 26.7471L13.8721 24.6125C14.3406 25.1528 14.8472 25.6594 15.3875 26.1279L13.2529 28.2625Z" fill="#041655" stroke="#041655" stroke-width="0.2"/>
<path d="M25.4839 10.1067L25.484 10.1067C26.3047 10.1974 26.9671 10.8598 27.0578 11.6806C27.1377 12.4058 26.781 13.1021 26.1493 13.4552L26.1493 13.4552C25.0687 14.0595 24.3949 15.1785 24.3949 16.3776V17.4924C24.3949 17.9791 24.7894 18.3736 25.2761 18.3736C25.7625 18.3736 26.1574 17.9791 26.1574 17.4924V16.3776C26.1574 15.8208 26.4811 15.289 27.0095 14.9936L27.0095 14.9936C28.2612 14.2936 28.9676 12.917 28.8097 11.4871L28.8097 11.4871C28.6291 9.85214 27.3121 8.53551 25.6774 8.35489L25.6774 8.35489C24.668 8.24346 23.6567 8.56544 22.9044 9.23917L22.9044 9.23917C22.1521 9.91303 21.7203 10.8785 21.7203 11.8884C21.7203 12.3752 22.1148 12.7697 22.6016 12.7697C23.0883 12.7697 23.4828 12.3752 23.4828 11.8884C23.4828 11.3792 23.7008 10.892 24.0803 10.5521C24.4653 10.2073 24.9628 10.0491 25.4839 10.1067Z" fill="#041655" stroke="#041655" stroke-width="0.2"/>
<path d="M24.6546 19.9153C24.8185 19.7513 25.0454 19.6571 25.2773 19.6571C25.5096 19.6571 25.7364 19.7512 25.9003 19.9152L24.6546 19.9153ZM24.6546 19.9153C24.4906 20.0792 24.3961 20.3063 24.3961 20.5383M24.6546 19.9153L24.3961 20.5383M24.3961 20.5383C24.3961 20.7712 24.4903 20.9974 24.6545 21.1614M24.3961 20.5383L24.6545 21.1614M24.6545 21.1614C24.8187 21.3262 25.0456 21.4196 25.2773 21.4196C25.5094 21.4196 25.7363 21.3262 25.9005 21.1613C26.0644 20.9974 26.1586 20.7702 26.1586 20.5383C26.1586 20.3065 26.0648 20.0793 25.9004 19.9152L24.6545 21.1614Z" fill="#041655" stroke="#041655" stroke-width="0.2"/>
</svg>
