<svg width="40" height="40" viewBox="0 0 40 40" fill="none" xmlns="http://www.w3.org/2000/svg">
<path d="M20.0013 6.56663C18.1077 6.56663 16.568 8.10632 16.568 9.99998C16.568 11.8936 18.1077 13.4333 20.0013 13.4333C21.895 13.4333 23.4347 11.8936 23.4347 9.99998C23.4347 8.10632 21.8949 6.56663 20.0013 6.56663ZM20.0013 11.5666C19.1378 11.5666 18.4347 10.8635 18.4347 9.99998C18.4347 9.13646 19.1378 8.43334 20.0013 8.43334C20.8649 8.43334 21.568 9.13646 21.568 9.99998C21.568 10.8635 20.8649 11.5666 20.0013 11.5666Z" fill="#041655" stroke="#041655" stroke-width="0.2"/>
<path d="M15.8334 20.1001H16.5667V32.5001C16.5667 33.0159 16.9842 33.4334 17.5001 33.4334H22.5001C23.0159 33.4334 23.4334 33.0159 23.4334 32.5001V15.8334V15.8333C23.4333 15.3175 23.0159 14.9 22.5 14.9H15.8334C15.3175 14.9 14.9 15.3175 14.9 15.8334V19.1667C14.9 19.6826 15.3175 20.1001 15.8334 20.1001ZM21.5666 31.5666H18.4333V19.1666C18.4333 18.6508 18.0158 18.2333 17.4999 18.2333H16.7666V16.7666H21.5666V31.5666Z" fill="#041655" stroke="#041655" stroke-width="0.2"/>
<path d="M20 -0.1C8.91696 -0.1 -0.1 8.91696 -0.1 20C-0.1 31.083 8.91696 40.1 20 40.1C31.083 40.1 40.1 31.083 40.1 20C40.1 8.91696 31.083 -0.1 20 -0.1ZM20 38.2334C9.94617 38.2334 1.76664 30.0538 1.76664 20C1.76664 9.94617 9.94617 1.76664 20 1.76664C30.0538 1.76664 38.2334 9.94617 38.2334 20C38.2334 30.0538 30.0538 38.2334 20 38.2334Z" fill="#041655" stroke="#041655" stroke-width="0.2"/>
</svg>
