<svg width="35" height="39" viewBox="0 0 35 39" fill="none" xmlns="http://www.w3.org/2000/svg">
<path d="M32.0487 15.3801L19.1253 2.45676C17.7894 1.12071 15.6153 1.12064 14.2792 2.45676C13.0781 3.65776 12.9746 5.48946 13.8616 6.79741L13.8436 6.88737C12.9119 11.5464 10.6436 15.7849 7.28369 19.1447L1.35609 25.0723C0.0168353 26.4116 0.016607 28.5792 1.35609 29.9185L4.58683 33.1492C5.92601 34.4885 8.0937 34.4886 9.43303 33.1492L10.2408 32.3415L15.8947 37.9954C17.2339 39.3348 19.4015 39.3348 20.7408 37.9954C22.0769 36.6594 22.0769 34.4854 20.7408 33.1493L18.3177 30.7262L19.1254 29.9185C20.4647 28.5793 20.4648 26.4118 19.1254 25.0724L18.5765 24.5234C21.2767 22.6329 24.3433 21.3167 27.6182 20.6617L27.7093 20.6435C29.0463 21.5462 30.8738 21.4011 32.0487 20.2262H32.0488C33.3847 18.8902 33.3847 16.7163 32.0487 15.3801ZM7.81766 31.5339C7.37129 31.9802 6.64857 31.9802 6.20221 31.5338L2.97146 28.303C2.52502 27.8565 2.52502 27.1341 2.97146 26.6877L8.62531 21.0337L13.4715 25.8799C12.9183 26.4331 8.38445 30.967 7.81766 31.5339ZM19.1253 34.7646C19.5706 35.2099 19.5706 35.9346 19.1253 36.38C18.68 36.8253 17.9553 36.8253 17.51 36.38L11.8561 30.7261L13.4715 29.1107L19.1253 34.7646ZM15.0869 27.4953C15.4303 27.1519 15.9443 26.626 16.7555 25.9331L17.51 26.6877C17.9564 27.1341 17.9564 27.8565 17.51 28.303L16.7022 29.1108L15.0869 27.4953ZM15.1354 24.3132L10.192 19.3698C12.8412 16.3108 14.7383 12.6999 15.7533 8.77703L25.7281 18.7519C21.8053 19.7668 18.1945 21.6639 15.1354 24.3132ZM30.4331 18.6107C29.9867 19.0571 29.2642 19.0571 28.8177 18.6107L15.8945 5.68751C15.4481 5.24099 15.4481 4.51858 15.8945 4.07214C16.341 3.62569 17.0635 3.62569 17.51 4.07214L30.4331 16.9953C30.8784 17.4407 30.8784 18.1653 30.4331 18.6107Z" fill="#041655"/>
<path d="M9.43249 25.0722C8.9865 24.6262 8.26318 24.6262 7.81711 25.0722L6.20173 26.6876C5.75567 27.1337 5.75567 27.8569 6.20173 28.303C6.64772 28.749 7.37113 28.749 7.81711 28.303L9.43249 26.6876C9.87855 26.2415 9.87855 25.5183 9.43249 25.0722Z" fill="#041655"/>
<path d="M24.3727 0C23.7419 0 23.2305 0.511417 23.2305 1.14227V3.42681C23.2305 4.05767 23.7419 4.56909 24.3727 4.56909C25.0036 4.56909 25.515 4.05767 25.515 3.42681V1.14227C25.515 0.511417 25.0036 0 24.3727 0Z" fill="#041655"/>
<path d="M33.5088 9.13803H31.2243C30.5934 9.13803 30.082 9.64945 30.082 10.2803C30.082 10.9112 30.5934 11.4226 31.2243 11.4226H33.5088C34.1397 11.4226 34.6511 10.9112 34.6511 10.2803C34.6511 9.64945 34.1396 9.13803 33.5088 9.13803Z" fill="#041655"/>
<path d="M32.0313 2.61902C31.5854 2.17295 30.862 2.17295 30.416 2.61902L28.1314 4.90356C27.6854 5.34962 27.6854 6.07287 28.1314 6.51893C28.5774 6.965 29.3007 6.96507 29.7468 6.51893L32.0313 4.23439C32.4774 3.78833 32.4774 3.06515 32.0313 2.61902Z" fill="#041655"/>
</svg>
