<svg width="34" height="40" viewBox="0 0 34 40" fill="none" xmlns="http://www.w3.org/2000/svg">
<path d="M23.2539 3.125C22.8227 3.125 22.4727 3.475 22.4727 3.90625C22.4727 4.3375 22.8227 4.6875 23.2539 4.6875C23.6852 4.6875 24.0352 4.3375 24.0352 3.90625C24.0352 3.475 23.6852 3.125 23.2539 3.125Z" fill="#041655"/>
<path d="M10.7539 3.125C10.3227 3.125 9.97266 3.475 9.97266 3.90625C9.97266 4.3375 10.3227 4.6875 10.7539 4.6875C11.1852 4.6875 11.5352 4.3375 11.5352 3.90625C11.5352 3.475 11.1852 3.125 10.7539 3.125Z" fill="#041655"/>
<path d="M33.2522 38.6785L28.0825 33.2777C30.1711 33.2028 31.8473 31.4815 31.8473 29.375V6.19297C31.8473 4.9307 31.4061 3.69805 30.6049 2.72203C29.8031 1.74625 28.6798 1.07383 27.4424 0.829063C24.6696 0.278906 21.8307 0 19.0044 0H14.8771C12.189 0 9.38911 0.2575 6.55583 0.82375C4.00856 1.33336 2.15981 3.58891 2.15981 6.18672V29.375C2.15981 31.4992 3.8645 33.2316 5.97755 33.279L0.749502 38.6752C0.531142 38.9005 0.468799 39.2345 0.591221 39.5234C0.713486 39.8123 0.996846 40 1.3106 40H6.89653C7.147 40 7.38224 39.8799 7.52919 39.6771L9.89903 36.4062H24.1776L26.5475 39.6772C26.6944 39.8799 26.9297 40 27.1801 40H32.6879C33.0008 40 33.2835 39.8133 33.4064 39.5256C33.5293 39.2378 33.4686 38.9046 33.2522 38.6785ZM3.72231 29.375V6.18672C3.72231 4.33102 5.04286 2.71992 6.86216 2.35586C9.41239 1.84617 12.1072 1.5625 14.877 1.5625H19.0043C21.7288 1.5625 24.4654 1.83133 27.1386 2.36164C28.0225 2.53656 28.8248 3.01688 29.3973 3.71367C29.9696 4.41078 30.2847 5.29125 30.2847 6.19289V29.375C30.2847 30.6673 29.2333 31.7188 27.941 31.7188H6.06599C4.77372 31.7188 3.72231 30.6673 3.72231 29.375ZM6.49786 38.4375H3.15528L8.15083 33.2812H10.2338L6.49786 38.4375ZM11.0311 34.8438L12.1633 33.2812H21.9135L23.0455 34.8438H11.0311ZM27.5788 38.4375L23.843 33.2812H25.9231L30.8586 38.4375H27.5788Z" fill="#041655"/>
<path d="M27.9414 6.25H6.06641C5.635 6.25 5.28516 6.59984 5.28516 7.03125V20C5.28516 20.4314 5.635 20.7812 6.06641 20.7812H27.9414C28.3728 20.7812 28.7227 20.4314 28.7227 20V7.03125C28.7227 6.59984 28.3728 6.25 27.9414 6.25ZM16.2227 19.2188H6.84766V7.8125H16.2227V19.2188ZM27.1602 19.2188H17.7852V7.8125H27.1602V19.2188Z" fill="#041655"/>
<path d="M20.1289 3.125H13.8789C13.4475 3.125 13.0977 3.47484 13.0977 3.90625C13.0977 4.33766 13.4475 4.6875 13.8789 4.6875H20.1289C20.5603 4.6875 20.9102 4.33766 20.9102 3.90625C20.9102 3.47484 20.5603 3.125 20.1289 3.125Z" fill="#041655"/>
<path d="M25.5977 23.125C23.8745 23.125 22.4727 24.5269 22.4727 26.25C22.4727 27.9731 23.8745 29.375 25.5977 29.375C27.3208 29.375 28.7227 27.9731 28.7227 26.25C28.7227 24.5269 27.3208 23.125 25.5977 23.125ZM25.5977 27.8125C24.7361 27.8125 24.0352 27.1116 24.0352 26.25C24.0352 25.3884 24.7361 24.6875 25.5977 24.6875C26.4592 24.6875 27.1602 25.3884 27.1602 26.25C27.1602 27.1116 26.4592 27.8125 25.5977 27.8125Z" fill="#041655"/>
<path d="M8.41016 23.125C6.68703 23.125 5.28516 24.5269 5.28516 26.25C5.28516 27.9731 6.68711 29.375 8.41016 29.375C10.1333 29.375 11.5352 27.9731 11.5352 26.25C11.5352 24.5269 10.1333 23.125 8.41016 23.125ZM8.41016 27.8125C7.54859 27.8125 6.84766 27.1116 6.84766 26.25C6.84766 25.3884 7.54859 24.6875 8.41016 24.6875C9.27172 24.6875 9.97266 25.3884 9.97266 26.25C9.97266 27.1116 9.27172 27.8125 8.41016 27.8125Z" fill="#041655"/>
<path d="M20.1289 23.9062H13.8789C13.4475 23.9062 13.0977 24.2561 13.0977 24.6875C13.0977 25.1189 13.4475 25.4688 13.8789 25.4688H20.1289C20.5603 25.4688 20.9102 25.1189 20.9102 24.6875C20.9102 24.2561 20.5604 23.9062 20.1289 23.9062Z" fill="#041655"/>
<path d="M20.1289 27.0312H13.8789C13.4475 27.0312 13.0977 27.3811 13.0977 27.8125C13.0977 28.2439 13.4475 28.5938 13.8789 28.5938H20.1289C20.5603 28.5938 20.9102 28.2439 20.9102 27.8125C20.9102 27.3811 20.5604 27.0312 20.1289 27.0312Z" fill="#041655"/>
</svg>
